<svg width="1440" height="830" viewBox="0 0 1440 830" fill="none" xmlns="http://www.w3.org/2000/svg">
<rect width="1440" height="830" fill="url(#paint0_linear_748_80205)"/>
<rect width="1440" height="830" fill="#081F3F"/>
<rect width="1440" height="830" fill="url(#paint1_linear_748_80205)"/>
<g clip-path="url(#clip0_748_80205)">
<g clip-path="url(#clip1_748_80205)">
<g opacity="0.3">
<path d="M1040.9 822.896C1060.47 671.42 1102.28 162.248 788.971 106.516C472.437 73.7181 372.201 574.734 349.266 725.681L1040.9 822.896Z" fill="#F48C22" fill-opacity="0.7"/>
<path d="M1054.13 593.499C831.939 603.942 611.475 573.287 399.781 501.525C392.763 524.645 386.481 547.259 380.981 569.041C398.121 557.097 415.114 545.021 431.71 532.613C440.594 559.298 450.138 586.021 460.311 612.61C482.965 595.346 505.129 577.624 526.671 559.593C536.959 585.756 547.922 611.846 559.552 637.92C581.218 619.408 602.27 600.533 622.816 581.309C634.515 606.894 646.843 632.345 659.907 657.678C680.515 638.02 700.508 617.998 719.935 597.675C733.006 622.566 746.76 647.331 761.095 671.901C780.583 651.143 799.503 630.084 817.802 608.716C832.198 632.851 847.285 656.806 863.008 680.573C881.368 658.77 899.098 636.713 916.207 614.346C931.937 637.671 948.31 660.754 965.381 683.602C982.49 660.847 999.031 637.791 1014.93 614.589C1027.47 631.037 1040.46 647.383 1053.65 663.589C1054.37 641.135 1054.56 617.666 1054.19 593.507L1054.13 593.499Z" fill="#7B1E52"/>
<path d="M511.951 316.182C533.737 299.571 555.026 282.557 575.701 265.181C585.575 290.343 596.125 315.433 607.295 340.445C628.085 322.641 648.37 304.489 668.087 286.035C679.319 310.612 691.178 335.056 703.713 359.428C723.492 340.54 742.765 321.304 761.417 301.758C774.013 325.696 787.182 349.492 800.988 373.101C819.701 353.121 837.894 332.901 855.465 312.373C869.331 335.547 883.826 358.587 898.903 381.433C916.535 360.469 933.538 339.251 950.021 317.794C965.158 340.205 980.878 362.42 997.241 384.393C1005.62 373.268 1013.85 362.012 1021.91 350.787C1016.84 333.282 1011.1 316.182 1004.49 299.682C843.974 299.896 685.656 278.142 528.115 232.723C517.274 246.771 506.993 261.564 497.334 277.053C501.982 290.12 506.8 303.155 511.788 316.159L511.951 316.182Z" fill="#7B1E52" fill-opacity="0.6"/>
<path d="M1049.34 502.607C1047.34 480.547 1044.59 458.38 1041.02 436.432C842.771 444.477 644.756 415.758 456.928 351.618C447.397 371.725 438.588 392.21 430.477 412.849C629.312 481.473 839.283 511.873 1049.34 502.607Z" fill="#DF1C4D"/>
<path d="M976.441 453.124C999.724 453.46 1000.13 488.041 976.293 487.684C952.404 487.319 953.157 452.788 976.441 453.124Z" fill="#BFD532"/>
<path d="M859.302 448.297C882.511 449.952 880.703 484.5 856.842 482.753C832.981 481.006 836.039 446.634 859.302 448.297Z" fill="#BFD532"/>
<path d="M742.589 436.104C765.669 439.07 761.563 473.406 737.777 470.34C714.067 466.73 719.578 432.647 742.589 436.104Z" fill="#BFD532"/>
<path d="M627.037 415.65C649.802 420.457 643.368 454.41 619.903 449.45C596.547 444.504 604.216 410.835 627.037 415.65Z" fill="#BFD532"/>
<path d="M513.106 387.999C535.58 394.095 526.777 427.549 503.721 421.26C480.657 415.025 490.687 381.91 513.106 387.999Z" fill="#BFD532"/>
</g>
<path d="M1483.96 706.174C1008.58 761.052 397.752 675.25 -44.4536 491.343C-44.4536 491.343 -129.12 710.477 10.639 807.096C150.445 903.777 500.17 949.221 667.168 972.694C834.166 996.167 1182.93 1048.85 1343.91 994.498C1504.95 940.103 1483.91 706.166 1483.91 706.166L1483.96 706.174Z" fill="#7B1E52" fill-opacity="0.5"/>
<path d="M1389.26 728.607C1398.62 727.484 1407.15 734.224 1408.31 743.698C1410.18 759.146 1391.93 768.771 1380.17 759.415C1367.94 749.384 1374.61 730.371 1389.26 728.607Z" fill="#BFD532" fill-opacity="0.7"/>
<path d="M1275.4 737.928C1297.96 736.279 1300.66 770.739 1277.42 772.405C1255.54 774.317 1251.55 740.007 1275.4 737.928Z" fill="#BFD532" fill-opacity="0.7"/>
<path d="M1160.99 742.074C1183.64 741.379 1184.77 775.951 1161.51 776.617C1138.39 776.692 1138.2 742.141 1160.99 742.074Z" fill="#BFD532" fill-opacity="0.7"/>
<path d="M1046.4 741.153C1070.12 742.326 1067.72 776.79 1045.53 775.722C1022.27 774.835 1023.75 740.296 1046.4 741.153Z" fill="#BFD532" fill-opacity="0.7"/>
<path d="M931.88 735.862C954.491 737.433 952.962 771.965 929.691 770.357C906.529 768.763 909.16 734.276 931.88 735.862Z" fill="#BFD532" fill-opacity="0.7"/>
<path d="M798.529 741.89C801.055 719.191 835.211 722.607 833.128 745.312C831.037 768.072 796.058 764.596 798.529 741.89Z" fill="#BFD532" fill-opacity="0.7"/>
<path d="M684.069 727.465C687.433 705.105 721.46 709.833 718.523 732.307C715.54 755.108 680.698 750.266 684.069 727.465Z" fill="#BFD532" fill-opacity="0.7"/>
<path d="M570.321 708.373C574.578 685.973 608.359 692.051 604.522 714.621C600.638 737.129 566.049 730.881 570.321 708.373Z" fill="#BFD532" fill-opacity="0.7"/>
<path d="M457.293 685.337C462.365 663.052 495.986 670.271 491.302 692.556C486.61 714.894 452.221 707.622 457.293 685.337Z" fill="#BFD532" fill-opacity="0.7"/>
<path d="M366.455 645.581C388.469 651.003 380.365 684.61 357.76 679.05C336.197 673.969 343.276 640.162 366.455 645.581Z" fill="#BFD532" fill-opacity="0.7"/>
<path d="M256.057 614.879C278.042 621.294 268.175 654.432 246.034 647.94C223.915 640.896 234.419 607.958 256.057 614.879Z" fill="#BFD532" fill-opacity="0.7"/>
<path d="M125.266 589.679C133.126 568.063 165.097 580.315 157.989 601.317C150.426 623.584 117.491 611.086 125.266 589.679Z" fill="#BFD532" fill-opacity="0.7"/>
<path d="M17.8709 548.26C23.846 534.138 43.7373 534.163 49.6523 548.46C55.7371 562.339 41.8942 577.24 27.3052 571.033C18.3561 567.281 14.1421 557.046 17.8709 548.26Z" fill="#BFD532" fill-opacity="0.7"/>
<path d="M-61.613 553.492C-68.8043 589.278 -73.7821 636.127 -65.7779 682.084C-35.2034 663.273 -5.06459 644.012 24.569 624.403C37.5593 671.949 51.7138 719.491 67.04 766.977C108.327 738.976 148.72 710.239 188.165 680.759C203.706 727.499 220.366 774.175 238.204 820.739C277.864 790.514 316.522 759.538 354.215 727.928C372.215 773.739 391.402 819.385 411.714 864.911C449.569 832.548 486.468 799.497 522.395 765.865C542.876 810.584 564.435 855.122 587.189 899.44C623.223 865.048 658.239 830.013 692.214 794.5C715.075 838.058 739.084 881.333 764.241 924.326C798.331 887.998 831.387 851.136 863.402 813.796C888.611 856.021 914.977 897.909 942.49 939.516C974.565 901.353 1005.54 862.758 1035.52 823.692C1063.04 864.468 1091.72 904.853 1121.45 944.887C1151.44 905.044 1180.32 864.77 1208.14 824.125C1237.93 863.336 1268.78 902.087 1300.81 940.392C1328.63 898.972 1355.29 857.165 1380.88 815.044C1403.95 842.116 1427.62 868.884 1451.83 895.396C1472.2 853.371 1480.32 807.02 1483.27 770.638C975.915 828.669 443.335 762.954 -61.613 553.492Z" fill="#DF1C4D" fill-opacity="0.5"/>
</g>
</g>
<defs>
<linearGradient id="paint0_linear_748_80205" x1="720" y1="0" x2="720" y2="830" gradientUnits="userSpaceOnUse">
<stop stop-color="#732738"/>
<stop offset="1" stop-color="#793041" stop-opacity="0"/>
</linearGradient>
<linearGradient id="paint1_linear_748_80205" x1="720" y1="81.5484" x2="720" y2="830" gradientUnits="userSpaceOnUse">
<stop stop-color="#431A24"/>
<stop offset="1" stop-color="#793041" stop-opacity="0"/>
</linearGradient>
<clipPath id="clip0_748_80205">
<rect width="1440" height="734" fill="white" transform="translate(0 96)"/>
</clipPath>
<clipPath id="clip1_748_80205">
<rect width="1561.61" height="874.809" fill="white" transform="translate(15.7139 -2.17114) rotate(8.00095)"/>
</clipPath>
</defs>
</svg>
