<svg width="1440" height="188" viewBox="0 0 1440 188" fill="none" xmlns="http://www.w3.org/2000/svg">
<g clip-path="url(#clip0_571_81332)">
<g clip-path="url(#clip1_571_81332)">
<g clip-path="url(#clip2_571_81332)">
<path d="M-0.000244141 188L820.363 188L820.363 130.783L-0.000239139 130.783L-0.000244141 188Z" fill="#EC8522"/>
<path d="M-0.000244141 65.391L820.363 65.3911L820.363 24.5216L-0.000240568 24.5215L-0.000244141 65.391Z" fill="#BF1D1D"/>
<path d="M-0.000244141 130.783L820.363 130.783L820.363 73.5654L-0.000239139 73.5653L-0.000244141 130.783Z" fill="#99261D"/>
<path d="M32.8143 130.783L820.363 130.783L807.625 108.265C806.114 105.592 801.798 105.592 800.287 108.265L795.687 116.397L789.252 127.775C789.135 127.981 788.979 128.167 788.781 128.299C788.059 128.778 787.038 128.778 786.317 128.299C786.121 128.17 785.969 127.987 785.852 127.785L782.267 121.446L779.411 116.398L774.81 108.267C773.299 105.594 768.984 105.594 767.473 108.267L762.872 116.398L760.016 121.446L756.431 127.785C756.314 127.987 756.162 128.169 755.966 128.299C755.244 128.778 754.224 128.778 753.502 128.299C753.307 128.17 753.154 127.987 753.038 127.785L749.453 121.446L746.596 116.398L741.996 108.267C740.484 105.594 736.169 105.594 734.658 108.267L730.058 116.398L727.201 121.446L723.616 127.785C723.5 127.987 723.347 128.169 723.152 128.299C722.43 128.778 721.409 128.778 720.687 128.299C720.492 128.17 720.34 127.987 720.223 127.785L716.638 121.446L713.782 116.398L709.181 108.267C707.67 105.594 703.355 105.594 701.844 108.267L697.243 116.398L694.387 121.446L690.802 127.785C690.685 127.987 690.533 128.169 690.337 128.299C689.615 128.778 688.595 128.778 687.873 128.299C687.678 128.17 687.525 127.987 687.409 127.785L683.824 121.446L680.967 116.398L676.367 108.267C674.855 105.594 670.54 105.594 669.029 108.267L664.429 116.398L661.572 121.446L657.987 127.785C657.871 127.987 657.718 128.169 657.523 128.299C656.801 128.778 655.78 128.778 655.058 128.299C654.863 128.17 654.711 127.987 654.594 127.785L651.009 121.446L648.153 116.398L643.552 108.267C642.041 105.594 637.726 105.594 636.215 108.267L631.614 116.398L628.758 121.446L625.173 127.785C625.056 127.987 624.903 128.169 624.708 128.299C623.986 128.778 622.966 128.778 622.244 128.299C622.049 128.17 621.896 127.987 621.78 127.785L618.195 121.446L615.338 116.398L610.737 108.267C609.226 105.594 604.911 105.594 603.4 108.267L598.8 116.398L595.943 121.446L592.358 127.785C592.242 127.987 592.089 128.169 591.894 128.299C591.172 128.778 590.151 128.778 589.429 128.299C589.234 128.17 589.081 127.987 588.965 127.785L585.38 121.446L582.523 116.398L577.923 108.267C576.412 105.594 572.097 105.594 570.586 108.267L565.985 116.398L563.128 121.446L559.543 127.785C559.427 127.987 559.274 128.169 559.079 128.299C558.357 128.778 557.337 128.778 556.615 128.299C556.42 128.17 556.267 127.987 556.15 127.785L552.565 121.446L549.709 116.398L545.108 108.267C543.597 105.594 539.282 105.594 537.771 108.267L533.17 116.398L530.314 121.446L526.729 127.784C526.612 127.987 526.46 128.169 526.265 128.299C525.543 128.778 524.522 128.778 523.8 128.299C523.605 128.17 523.452 127.987 523.336 127.784L519.751 121.446L516.894 116.398L512.294 108.267C510.783 105.594 506.468 105.594 504.956 108.267L500.356 116.398L497.499 121.446L493.914 127.784C493.798 127.987 493.645 128.169 493.45 128.299C492.728 128.778 491.708 128.778 490.986 128.299C490.79 128.17 490.638 127.987 490.521 127.784L486.936 121.446L484.08 116.398L479.479 108.267C477.968 105.594 473.653 105.594 472.142 108.267L467.541 116.398L464.685 121.446L461.1 127.784C460.983 127.987 460.831 128.169 460.635 128.299C459.914 128.778 458.893 128.778 458.171 128.299C457.976 128.17 457.823 127.987 457.707 127.784L454.122 121.446L451.265 116.398L446.665 108.267C445.154 105.594 440.838 105.594 439.327 108.267L434.727 116.398L431.87 121.446L428.285 127.784C428.169 127.987 428.016 128.169 427.821 128.299C427.099 128.778 426.079 128.778 425.357 128.299C425.161 128.17 425.009 127.987 424.892 127.784L421.307 121.446L418.451 116.398L413.85 108.267C412.339 105.594 408.024 105.594 406.513 108.267L401.912 116.398L399.056 121.446L395.471 127.784C395.354 127.987 395.202 128.169 395.006 128.299C394.285 128.778 393.264 128.778 392.542 128.299C392.347 128.17 392.194 127.987 392.078 127.784L388.493 121.446L385.636 116.398L381.036 108.267C379.525 105.594 375.209 105.594 373.698 108.267L369.098 116.398L366.241 121.446L362.656 127.784C362.54 127.987 362.387 128.169 362.192 128.299C361.47 128.778 360.449 128.778 359.728 128.299C359.532 128.17 359.38 127.987 359.263 127.784L355.678 121.446L352.822 116.398L348.221 108.267C346.71 105.594 342.395 105.594 340.884 108.267L336.283 116.398L333.427 121.446L329.842 127.784C329.725 127.987 329.573 128.169 329.377 128.299C328.655 128.778 327.635 128.778 326.913 128.299C326.718 128.17 326.565 127.987 326.449 127.784L322.864 121.446L320.007 116.398L315.407 108.267C313.895 105.594 309.58 105.594 308.069 108.267L303.469 116.398L300.612 121.446L297.027 127.784C296.911 127.987 296.758 128.169 296.563 128.299C295.841 128.778 294.82 128.778 294.098 128.299C293.903 128.17 293.751 127.987 293.634 127.784L290.049 121.446L287.193 116.398L282.592 108.267C281.081 105.594 276.766 105.594 275.255 108.267L270.654 116.398L267.798 121.446L264.213 127.784C264.096 127.987 263.943 128.169 263.748 128.299C263.026 128.778 262.006 128.778 261.284 128.299C261.089 128.17 260.936 127.987 260.82 127.784L257.235 121.446L254.378 116.398L249.777 108.267C248.266 105.594 243.951 105.594 242.44 108.267L237.84 116.398L234.983 121.446L231.398 127.784C231.282 127.987 231.129 128.169 230.934 128.299C230.212 128.778 229.191 128.778 228.469 128.299C228.274 128.17 228.122 127.987 228.005 127.784L224.42 121.446L221.564 116.398L216.963 108.267C215.452 105.594 211.137 105.594 209.626 108.267L205.025 116.398L202.168 121.446L198.583 127.784C198.467 127.987 198.314 128.169 198.119 128.299C197.397 128.778 196.377 128.778 195.655 128.299C195.46 128.17 195.307 127.987 195.19 127.784L191.606 121.446L188.749 116.398L184.148 108.267C182.637 105.594 178.322 105.594 176.811 108.267L172.21 116.398L169.354 121.446L165.769 127.784C165.652 127.987 165.5 128.169 165.305 128.299C164.583 128.778 163.562 128.778 162.84 128.299C162.645 128.17 162.492 127.987 162.376 127.784L158.791 121.446L155.934 116.398L151.334 108.267C149.823 105.594 145.508 105.594 143.997 108.267L139.396 116.398L136.539 121.446L132.954 127.784C132.838 127.987 132.685 128.169 132.49 128.299C131.768 128.778 130.748 128.778 130.026 128.299C129.831 128.17 129.678 127.987 129.561 127.784L125.976 121.446L123.12 116.398L118.519 108.267C117.008 105.594 112.693 105.594 111.182 108.267L106.581 116.398L103.725 121.446L100.14 127.784C100.023 127.987 99.8708 128.169 99.6755 128.299C98.9536 128.778 97.9332 128.778 97.2112 128.299C97.016 128.17 96.8634 127.987 96.7469 127.784L93.1619 121.446L90.3054 116.398L85.7047 108.267C84.1936 105.594 79.8785 105.594 78.3674 108.267L73.7668 116.398L70.9103 121.446L67.3253 127.784C67.2088 127.987 67.0562 128.169 66.861 128.299C66.139 128.778 65.1186 128.778 64.3967 128.299C64.2014 128.17 64.0488 127.987 63.9323 127.784L60.3474 121.446L57.4908 116.398L52.8902 108.267C51.3791 105.594 47.064 105.594 45.5529 108.267L40.9523 116.398L38.0958 121.446L34.5107 127.784C34.3943 127.987 34.2417 128.169 34.0464 128.299C33.3245 128.778 32.3041 128.778 31.5822 128.299C31.3836 128.169 31.2277 127.982 31.1112 127.775L24.6763 116.397L20.0757 108.265C18.5646 105.592 14.2495 105.592 12.7383 108.265L-0.000244141 130.783L32.8143 130.783Z" fill="#BF1D1D"/>
<path d="M32.8143 24.5219L820.363 24.522L807.625 2.00449C806.114 -0.66838 801.798 -0.66838 800.287 2.00449L795.687 10.1359L789.252 21.514C789.135 21.7199 788.979 21.9063 788.781 22.0387C788.059 22.5177 787.038 22.5177 786.317 22.0387C786.121 21.9096 785.969 21.7265 785.852 21.5238L782.267 15.1857L779.411 10.1375L774.81 2.00612C773.299 -0.666746 768.984 -0.666747 767.473 2.00612L762.872 10.1375L760.016 15.1857L756.431 21.5238C756.314 21.7265 756.162 21.908 755.966 22.0387C755.244 22.5177 754.224 22.5177 753.502 22.0387C753.307 21.9096 753.154 21.7265 753.038 21.5238L749.453 15.1857L746.596 10.1375L741.996 2.00612C740.484 -0.666749 736.169 -0.66675 734.658 2.00612L730.058 10.1375L727.201 15.1857L723.616 21.5238C723.5 21.7265 723.347 21.9079 723.152 22.0387C722.43 22.5177 721.409 22.5177 720.687 22.0387C720.492 21.9096 720.34 21.7265 720.223 21.5238L716.638 15.1857L713.782 10.1375L709.181 2.00612C707.67 -0.666752 703.355 -0.666753 701.844 2.00612L697.243 10.1375L694.387 15.1857L690.802 21.5238C690.685 21.7265 690.533 21.9079 690.337 22.0387C689.615 22.5177 688.595 22.5177 687.873 22.0387C687.678 21.9096 687.525 21.7265 687.409 21.5238L683.824 15.1857L680.967 10.1375L676.367 2.00611C674.855 -0.666755 670.54 -0.666755 669.029 2.00611L664.429 10.1375L661.572 15.1857L657.987 21.5238C657.871 21.7265 657.718 21.9079 657.523 22.0387C656.801 22.5177 655.78 22.5177 655.058 22.0387C654.863 21.9096 654.711 21.7265 654.594 21.5238L651.009 15.1857L648.153 10.1375L643.552 2.00611C642.041 -0.666758 637.726 -0.666758 636.215 2.00611L631.614 10.1375L628.758 15.1857L625.173 21.5238C625.056 21.7265 624.903 21.9079 624.708 22.0387C623.986 22.5177 622.966 22.5177 622.244 22.0387C622.049 21.9096 621.896 21.7265 621.78 21.5238L618.195 15.1857L615.338 10.1375L610.737 2.00611C609.226 -0.666761 604.911 -0.666761 603.4 2.00611L598.8 10.1375L595.943 15.1857L592.358 21.5238C592.242 21.7265 592.089 21.9079 591.894 22.0387C591.172 22.5177 590.151 22.5177 589.429 22.0387C589.234 21.9096 589.081 21.7265 588.965 21.5238L585.38 15.1857L582.523 10.1375L577.923 2.00611C576.412 -0.666764 572.097 -0.666764 570.586 2.0061L565.985 10.1375L563.128 15.1857L559.543 21.5238C559.427 21.7265 559.274 21.9079 559.079 22.0387C558.357 22.5177 557.337 22.5177 556.615 22.0387C556.42 21.9096 556.267 21.7265 556.15 21.5238L552.565 15.1857L549.709 10.1375L545.108 2.0061C543.597 -0.666767 539.282 -0.666767 537.771 2.0061L533.17 10.1375L530.314 15.1857L526.729 21.5238C526.612 21.7265 526.46 21.9079 526.265 22.0387C525.543 22.5177 524.522 22.5177 523.8 22.0387C523.605 21.9096 523.452 21.7265 523.336 21.5238L519.751 15.1857L516.894 10.1375L512.294 2.0061C510.783 -0.666769 506.468 -0.66677 504.956 2.0061L500.356 10.1375L497.499 15.1857L493.914 21.5237C493.798 21.7265 493.645 21.9079 493.45 22.0387C492.728 22.5177 491.708 22.5177 490.986 22.0387C490.79 21.9096 490.638 21.7265 490.521 21.5237L486.936 15.1857L484.08 10.1375L479.479 2.0061C477.968 -0.666772 473.653 -0.666773 472.142 2.0061L467.541 10.1375L464.685 15.1857L461.1 21.5237C460.983 21.7265 460.831 21.9079 460.635 22.0387C459.914 22.5177 458.893 22.5177 458.171 22.0387C457.976 21.9096 457.823 21.7265 457.707 21.5237L454.122 15.1857L451.265 10.1375L446.665 2.00609C445.154 -0.666775 440.838 -0.666776 439.327 2.00609L434.727 10.1375L431.87 15.1857L428.285 21.5237C428.169 21.7265 428.016 21.9079 427.821 22.0387C427.099 22.5177 426.079 22.5177 425.357 22.0387C425.161 21.9096 425.009 21.7265 424.892 21.5237L421.307 15.1857L418.451 10.1375L413.85 2.00609C412.339 -0.666778 408.024 -0.666778 406.513 2.00609L401.912 10.1375L399.056 15.1857L395.471 21.5237C395.354 21.7265 395.202 21.9079 395.006 22.0387C394.285 22.5177 393.264 22.5177 392.542 22.0387C392.347 21.9096 392.194 21.7265 392.078 21.5237L388.493 15.1857L385.636 10.1375L381.036 2.00609C379.525 -0.666781 375.209 -0.666781 373.698 2.00609L369.098 10.1375L366.241 15.1857L362.656 21.5237C362.54 21.7265 362.387 21.9079 362.192 22.0387C361.47 22.5177 360.449 22.5177 359.728 22.0387C359.532 21.9096 359.38 21.7265 359.263 21.5237L355.678 15.1857L352.822 10.1375L348.221 2.00609C346.71 -0.666784 342.395 -0.666784 340.884 2.00608L336.283 10.1375L333.427 15.1857L329.842 21.5237C329.725 21.7264 329.573 21.9079 329.377 22.0387C328.655 22.5177 327.635 22.5177 326.913 22.0387C326.718 21.9095 326.565 21.7264 326.449 21.5237L322.864 15.1857L320.007 10.1375L315.407 2.00608C313.895 -0.666787 309.58 -0.666787 308.069 2.00608L303.469 10.1375L300.612 15.1857L297.027 21.5237C296.911 21.7264 296.758 21.9079 296.563 22.0387C295.841 22.5177 294.82 22.5177 294.098 22.0387C293.903 21.9095 293.751 21.7264 293.634 21.5237L290.049 15.1857L287.193 10.1375L282.592 2.00608C281.081 -0.666789 276.766 -0.66679 275.255 2.00608L270.654 10.1375L267.798 15.1857L264.213 21.5237C264.096 21.7264 263.943 21.9079 263.748 22.0387C263.026 22.5177 262.006 22.5177 261.284 22.0387C261.089 21.9095 260.936 21.7264 260.82 21.5237L257.235 15.1857L254.378 10.1375L249.777 2.00608C248.266 -0.666792 243.951 -0.666793 242.44 2.00608L237.84 10.1375L234.983 15.1857L231.398 21.5237C231.282 21.7264 231.129 21.9079 230.934 22.0387C230.212 22.5177 229.191 22.5177 228.469 22.0387C228.274 21.9095 228.122 21.7264 228.005 21.5237L224.42 15.1857L221.564 10.1375L216.963 2.00607C215.452 -0.666795 211.137 -0.666796 209.626 2.00607L205.025 10.1375L202.168 15.1857L198.583 21.5237C198.467 21.7264 198.314 21.9079 198.119 22.0387C197.397 22.5177 196.377 22.5177 195.655 22.0387C195.46 21.9095 195.307 21.7264 195.19 21.5237L191.606 15.1857L188.749 10.1375L184.148 2.00607C182.637 -0.666798 178.322 -0.666798 176.811 2.00607L172.21 10.1375L169.354 15.1857L165.769 21.5237C165.652 21.7264 165.5 21.9079 165.305 22.0387C164.583 22.5177 163.562 22.5177 162.84 22.0387C162.645 21.9095 162.492 21.7264 162.376 21.5237L158.791 15.1857L155.934 10.1375L151.334 2.00607C149.823 -0.666801 145.508 -0.666801 143.997 2.00607L139.396 10.1375L136.539 15.1857L132.954 21.5237C132.838 21.7264 132.685 21.9079 132.49 22.0387C131.768 22.5177 130.748 22.5177 130.026 22.0387C129.831 21.9095 129.678 21.7264 129.561 21.5237L125.976 15.1857L123.12 10.1375L118.519 2.00607C117.008 -0.666804 112.693 -0.666804 111.182 2.00606L106.581 10.1375L103.725 15.1857L100.14 21.5237C100.023 21.7264 99.8708 21.9079 99.6755 22.0387C98.9536 22.5177 97.9332 22.5177 97.2112 22.0387C97.016 21.9095 96.8634 21.7264 96.7469 21.5237L93.1619 15.1857L90.3054 10.1375L85.7047 2.00606C84.1936 -0.666807 79.8785 -0.666807 78.3674 2.00606L73.7668 10.1375L70.9103 15.1857L67.3253 21.5237C67.2088 21.7264 67.0562 21.9079 66.861 22.0387C66.139 22.5177 65.1186 22.5177 64.3967 22.0387C64.2014 21.9095 64.0488 21.7264 63.9323 21.5237L60.3474 15.1857L57.4908 10.1375L52.8902 2.00606C51.3791 -0.66681 47.064 -0.66681 45.5529 2.00606L40.9523 10.1375L38.0958 15.1857L34.5107 21.5237C34.3943 21.7264 34.2417 21.9079 34.0464 22.0387C33.3245 22.5177 32.3041 22.5177 31.5822 22.0387C31.3836 21.9079 31.2277 21.7215 31.1112 21.5139L24.6763 10.1358L20.0757 2.00442C18.5646 -0.668449 14.2495 -0.668449 12.7383 2.00442L-0.000244141 24.5219L32.8143 24.5219Z" fill="#99261D"/>
<path d="M32.8143 65.391L820.363 65.3911L807.625 42.8736C806.114 40.2008 801.798 40.2008 800.287 42.8736L795.687 51.005L789.252 62.3831C789.135 62.5891 788.979 62.7755 788.781 62.9079C788.059 63.3869 787.038 63.3869 786.317 62.9079C786.121 62.7787 785.969 62.5956 785.852 62.3929L782.267 56.0549L779.411 51.0067L774.81 42.8753C773.299 40.2024 768.984 40.2024 767.473 42.8753L762.872 51.0067L760.016 56.0549L756.431 62.3929C756.314 62.5956 756.162 62.7771 755.966 62.9079C755.244 63.3869 754.224 63.3869 753.502 62.9079C753.307 62.7787 753.154 62.5956 753.038 62.3929L749.453 56.0549L746.596 51.0067L741.996 42.8753C740.484 40.2024 736.169 40.2024 734.658 42.8753L730.058 51.0067L727.201 56.0549L723.616 62.3929C723.5 62.5956 723.347 62.7771 723.152 62.9079C722.43 63.3869 721.409 63.3869 720.687 62.9079C720.492 62.7787 720.34 62.5956 720.223 62.3929L716.638 56.0549L713.782 51.0067L709.181 42.8753C707.67 40.2024 703.355 40.2024 701.844 42.8753L697.243 51.0067L694.387 56.0549L690.802 62.3929C690.685 62.5956 690.533 62.7771 690.337 62.9079C689.615 63.3869 688.595 63.3869 687.873 62.9079C687.678 62.7787 687.525 62.5956 687.409 62.3929L683.824 56.0549L680.967 51.0067L676.367 42.8753C674.855 40.2024 670.54 40.2024 669.029 42.8753L664.429 51.0067L661.572 56.0549L657.987 62.3929C657.871 62.5956 657.718 62.7771 657.523 62.9079C656.801 63.3869 655.78 63.3869 655.058 62.9079C654.863 62.7787 654.711 62.5956 654.594 62.3929L651.009 56.0549L648.153 51.0067L643.552 42.8753C642.041 40.2024 637.726 40.2024 636.215 42.8753L631.614 51.0067L628.758 56.0549L625.173 62.3929C625.056 62.5956 624.903 62.7771 624.708 62.9079C623.986 63.3869 622.966 63.3869 622.244 62.9079C622.049 62.7787 621.896 62.5956 621.78 62.3929L618.195 56.0549L615.338 51.0067L610.737 42.8752C609.226 40.2024 604.911 40.2024 603.4 42.8752L598.8 51.0067L595.943 56.0549L592.358 62.3929C592.242 62.5956 592.089 62.7771 591.894 62.9079C591.172 63.3869 590.151 63.3869 589.429 62.9079C589.234 62.7787 589.081 62.5956 588.965 62.3929L585.38 56.0549L582.523 51.0066L577.923 42.8752C576.412 40.2024 572.097 40.2024 570.586 42.8752L565.985 51.0066L563.128 56.0549L559.543 62.3929C559.427 62.5956 559.274 62.7771 559.079 62.9079C558.357 63.3868 557.337 63.3868 556.615 62.9079C556.42 62.7787 556.267 62.5956 556.15 62.3929L552.565 56.0549L549.709 51.0066L545.108 42.8752C543.597 40.2024 539.282 40.2024 537.771 42.8752L533.17 51.0066L530.314 56.0549L526.729 62.3929C526.612 62.5956 526.46 62.7771 526.265 62.9079C525.543 63.3868 524.522 63.3868 523.8 62.9079C523.605 62.7787 523.452 62.5956 523.336 62.3929L519.751 56.0549L516.894 51.0066L512.294 42.8752C510.783 40.2024 506.468 40.2024 504.956 42.8752L500.356 51.0066L497.499 56.0548L493.914 62.3929C493.798 62.5956 493.645 62.7771 493.45 62.9079C492.728 63.3868 491.708 63.3868 490.986 62.9079C490.79 62.7787 490.638 62.5956 490.521 62.3929L486.936 56.0548L484.08 51.0066L479.479 42.8752C477.968 40.2024 473.653 40.2024 472.142 42.8752L467.541 51.0066L464.685 56.0548L461.1 62.3929C460.983 62.5956 460.831 62.7771 460.635 62.9078C459.914 63.3868 458.893 63.3868 458.171 62.9078C457.976 62.7787 457.823 62.5956 457.707 62.3929L454.122 56.0548L451.265 51.0066L446.665 42.8752C445.154 40.2024 440.838 40.2024 439.327 42.8752L434.727 51.0066L431.87 56.0548L428.285 62.3929C428.169 62.5956 428.016 62.7771 427.821 62.9078C427.099 63.3868 426.079 63.3868 425.357 62.9078C425.161 62.7787 425.009 62.5956 424.892 62.3929L421.307 56.0548L418.451 51.0066L413.85 42.8752C412.339 40.2024 408.024 40.2024 406.513 42.8752L401.912 51.0066L399.056 56.0548L395.471 62.3929C395.354 62.5956 395.202 62.7771 395.006 62.9078C394.285 63.3868 393.264 63.3868 392.542 62.9078C392.347 62.7787 392.194 62.5956 392.078 62.3929L388.493 56.0548L385.636 51.0066L381.036 42.8752C379.525 40.2024 375.209 40.2024 373.698 42.8752L369.098 51.0066L366.241 56.0548L362.656 62.3929C362.54 62.5956 362.387 62.7771 362.192 62.9078C361.47 63.3868 360.449 63.3868 359.728 62.9078C359.532 62.7787 359.38 62.5956 359.263 62.3929L355.678 56.0548L352.822 51.0066L348.221 42.8752C346.71 40.2024 342.395 40.2024 340.884 42.8752L336.283 51.0066L333.427 56.0548L329.842 62.3929C329.725 62.5956 329.573 62.7771 329.377 62.9078C328.655 63.3868 327.635 63.3868 326.913 62.9078C326.718 62.7787 326.565 62.5956 326.449 62.3929L322.864 56.0548L320.007 51.0066L315.407 42.8752C313.895 40.2024 309.58 40.2024 308.069 42.8752L303.469 51.0066L300.612 56.0548L297.027 62.3929C296.911 62.5956 296.758 62.7771 296.563 62.9078C295.841 63.3868 294.82 63.3868 294.098 62.9078C293.903 62.7787 293.751 62.5956 293.634 62.3929L290.049 56.0548L287.193 51.0066L282.592 42.8752C281.081 40.2024 276.766 40.2024 275.255 42.8752L270.654 51.0066L267.798 56.0548L264.213 62.3929C264.096 62.5956 263.943 62.777 263.748 62.9078C263.026 63.3868 262.006 63.3868 261.284 62.9078C261.089 62.7787 260.936 62.5956 260.82 62.3929L257.235 56.0548L254.378 51.0066L249.777 42.8752C248.266 40.2023 243.951 40.2023 242.44 42.8752L237.84 51.0066L234.983 56.0548L231.398 62.3929C231.282 62.5956 231.129 62.777 230.934 62.9078C230.212 63.3868 229.191 63.3868 228.469 62.9078C228.274 62.7787 228.122 62.5956 228.005 62.3929L224.42 56.0548L221.564 51.0066L216.963 42.8752C215.452 40.2023 211.137 40.2023 209.626 42.8752L205.025 51.0066L202.168 56.0548L198.583 62.3929C198.467 62.5956 198.314 62.777 198.119 62.9078C197.397 63.3868 196.377 63.3868 195.655 62.9078C195.46 62.7787 195.307 62.5956 195.19 62.3929L191.606 56.0548L188.749 51.0066L184.148 42.8752C182.637 40.2023 178.322 40.2023 176.811 42.8752L172.21 51.0066L169.354 56.0548L165.769 62.3929C165.652 62.5956 165.5 62.777 165.305 62.9078C164.583 63.3868 163.562 63.3868 162.84 62.9078C162.645 62.7787 162.492 62.5956 162.376 62.3929L158.791 56.0548L155.934 51.0066L151.334 42.8752C149.823 40.2023 145.508 40.2023 143.997 42.8752L139.396 51.0066L136.539 56.0548L132.954 62.3929C132.838 62.5956 132.685 62.777 132.49 62.9078C131.768 63.3868 130.748 63.3868 130.026 62.9078C129.831 62.7787 129.678 62.5956 129.561 62.3929L125.976 56.0548L123.12 51.0066L118.519 42.8752C117.008 40.2023 112.693 40.2023 111.182 42.8752L106.581 51.0066L103.725 56.0548L100.14 62.3929C100.023 62.5956 99.8708 62.777 99.6755 62.9078C98.9536 63.3868 97.9332 63.3868 97.2112 62.9078C97.016 62.7787 96.8634 62.5956 96.7469 62.3929L93.1619 56.0548L90.3054 51.0066L85.7047 42.8752C84.1936 40.2023 79.8785 40.2023 78.3674 42.8752L73.7668 51.0066L70.9103 56.0548L67.3253 62.3929C67.2088 62.5956 67.0562 62.777 66.861 62.9078C66.139 63.3868 65.1186 63.3868 64.3967 62.9078C64.2014 62.7787 64.0488 62.5956 63.9323 62.3929L60.3474 56.0548L57.4908 51.0066L52.8902 42.8752C51.3791 40.2023 47.064 40.2023 45.5529 42.8752L40.9523 51.0066L38.0958 56.0548L34.5107 62.3929C34.3943 62.5956 34.2417 62.777 34.0464 62.9078C33.3245 63.3868 32.3041 63.3868 31.5822 62.9078C31.3836 62.777 31.2277 62.5907 31.1112 62.383L24.6763 51.005L20.0757 42.8736C18.5646 40.2007 14.2495 40.2007 12.7383 42.8736L-0.000244141 65.391L32.8143 65.391Z" fill="#EC8522"/>
<path d="M754.734 167.565L754.734 142.226C754.734 140.42 756.202 138.957 758.015 138.957L759.656 138.957C761.469 138.957 762.937 140.42 762.937 142.226L762.937 163.478C762.937 165.734 763.856 167.778 765.341 169.257C766.814 170.725 768.844 171.638 771.087 171.652C775.628 171.682 779.345 167.86 779.345 163.333L779.345 142.226C779.345 140.42 780.813 138.957 782.626 138.957L784.267 138.957C786.08 138.957 787.548 140.42 787.548 142.226L787.548 167.565C787.548 174.337 782.039 179.826 775.243 179.826L767.039 179.826C760.243 179.826 754.734 174.337 754.734 167.565Z" fill="#99261D"/>
<path d="M689.104 167.565L689.104 142.226C689.104 140.42 690.573 138.957 692.386 138.957L694.027 138.957C695.84 138.957 697.308 140.42 697.308 142.226L697.308 163.478C697.308 165.734 698.227 167.778 699.712 169.257C701.185 170.725 703.215 171.638 705.458 171.652C709.999 171.682 713.715 167.86 713.715 163.333L713.715 142.226C713.715 140.42 715.184 138.957 716.997 138.957L718.637 138.957C720.45 138.957 721.919 140.42 721.919 142.226L721.919 167.565C721.919 174.337 716.409 179.826 709.613 179.826L701.41 179.826C694.614 179.826 689.104 174.337 689.104 167.565Z" fill="#99261D"/>
<path d="M623.475 167.565L623.476 142.226C623.476 140.42 624.944 138.957 626.757 138.957L628.398 138.957C630.211 138.957 631.679 140.42 631.679 142.226L631.679 163.478C631.679 165.734 632.598 167.778 634.083 169.257C635.556 170.725 637.586 171.638 639.829 171.652C644.37 171.682 648.086 167.86 648.086 163.333L648.086 142.226C648.086 140.42 649.555 138.957 651.368 138.957L653.009 138.957C654.822 138.957 656.29 140.42 656.29 142.226L656.29 167.565C656.29 174.337 650.78 179.826 643.985 179.826L635.781 179.826C628.985 179.826 623.475 174.337 623.475 167.565Z" fill="#99261D"/>
<path d="M557.847 167.565L557.847 142.226C557.847 140.42 559.315 138.957 561.128 138.957L562.769 138.957C564.582 138.957 566.05 140.42 566.05 142.226L566.05 163.478C566.05 165.734 566.969 167.778 568.454 169.257C569.927 170.725 571.957 171.638 574.2 171.652C578.741 171.682 582.457 167.86 582.457 163.333L582.458 142.226C582.458 140.42 583.926 138.957 585.739 138.957L587.38 138.957C589.193 138.957 590.661 140.42 590.661 142.226L590.661 167.565C590.661 174.337 585.152 179.826 578.356 179.826L570.152 179.826C563.356 179.826 557.847 174.337 557.847 167.565Z" fill="#99261D"/>
<path d="M492.218 167.565L492.218 142.226C492.218 140.42 493.687 138.957 495.5 138.957L497.14 138.957C498.953 138.957 500.422 140.42 500.422 142.226L500.422 163.478C500.422 165.734 501.341 167.778 502.825 169.257C504.299 170.725 506.328 171.638 508.571 171.652C513.113 171.682 516.829 167.86 516.829 163.333L516.829 142.226C516.829 140.42 518.298 138.957 520.111 138.957L521.751 138.957C523.564 138.957 525.033 140.42 525.033 142.226L525.033 167.565C525.033 174.337 519.523 179.826 512.727 179.826L504.524 179.826C497.728 179.826 492.218 174.337 492.218 167.565Z" fill="#99261D"/>
<path d="M426.589 167.565L426.589 142.226C426.589 140.42 428.057 138.957 429.87 138.957L431.511 138.957C433.324 138.957 434.792 140.42 434.792 142.226L434.792 163.478C434.792 165.734 435.711 167.778 437.196 169.257C438.669 170.725 440.699 171.638 442.942 171.652C447.483 171.682 451.2 167.86 451.2 163.333L451.2 142.226C451.2 140.42 452.668 138.957 454.481 138.957L456.122 138.957C457.935 138.957 459.403 140.42 459.403 142.226L459.403 167.565C459.403 174.337 453.894 179.826 447.098 179.826L438.894 179.826C432.098 179.826 426.589 174.337 426.589 167.565Z" fill="#99261D"/>
<path d="M360.96 167.565L360.96 142.226C360.96 140.42 362.428 138.957 364.241 138.957L365.882 138.957C367.695 138.957 369.164 140.42 369.164 142.226L369.164 163.478C369.164 165.734 370.082 167.778 371.567 169.257C373.052 170.737 375.07 171.638 377.313 171.652C381.855 171.682 385.571 167.86 385.571 163.333L385.571 142.226C385.571 140.42 387.039 138.957 388.852 138.957L390.493 138.957C392.306 138.957 393.774 140.42 393.774 142.226L393.774 167.565C393.774 174.337 388.265 179.826 381.469 179.826L373.265 179.826C366.469 179.826 360.96 174.337 360.96 167.565Z" fill="#99261D"/>
<path d="M295.33 167.565L295.33 142.226C295.33 140.42 296.798 138.957 298.611 138.957L300.252 138.957C302.065 138.957 303.534 140.42 303.534 142.226L303.534 163.478C303.534 165.734 304.452 167.778 305.937 169.257C307.422 170.737 309.44 171.638 311.683 171.652C316.225 171.682 319.941 167.86 319.941 163.333L319.941 142.226C319.941 140.42 321.409 138.957 323.222 138.957L324.863 138.957C326.676 138.957 328.145 140.42 328.145 142.226L328.145 167.565C328.145 174.337 322.635 179.826 315.839 179.826L307.635 179.826C300.84 179.826 295.33 174.337 295.33 167.565Z" fill="#99261D"/>
<path d="M229.701 167.565L229.701 142.226C229.701 140.42 231.17 138.957 232.983 138.957L234.623 138.957C236.436 138.957 237.905 140.42 237.905 142.226L237.905 163.478C237.905 165.734 238.824 167.778 240.308 169.257C241.793 170.737 243.811 171.638 246.054 171.652C250.596 171.682 254.312 167.86 254.312 163.333L254.312 142.226C254.312 140.42 255.78 138.957 257.593 138.957L259.234 138.957C261.047 138.957 262.516 140.42 262.516 142.226L262.516 167.565C262.516 174.337 257.006 179.826 250.21 179.826L242.007 179.826C235.211 179.826 229.701 174.337 229.701 167.565Z" fill="#99261D"/>
<path d="M164.072 167.565L164.072 142.226C164.072 140.42 165.541 138.957 167.354 138.957L168.994 138.957C170.807 138.957 172.276 140.42 172.276 142.226L172.276 163.478C172.276 165.734 173.195 167.778 174.679 169.257C176.164 170.737 178.182 171.638 180.425 171.652C184.967 171.682 188.683 167.86 188.683 163.333L188.683 142.226C188.683 140.42 190.152 138.957 191.965 138.957L193.605 138.957C195.418 138.957 196.887 140.42 196.887 142.226L196.887 167.565C196.887 174.337 191.377 179.826 184.581 179.826L176.378 179.826C169.582 179.826 164.072 174.337 164.072 167.565Z" fill="#99261D"/>
<path d="M98.4433 167.565L98.4433 142.226C98.4433 140.42 99.9117 138.957 101.725 138.957L103.365 138.957C105.178 138.957 106.647 140.42 106.647 142.226L106.647 163.478C106.647 165.734 107.566 167.778 109.051 169.257C110.535 170.737 112.554 171.638 114.796 171.652C119.338 171.682 123.054 167.86 123.054 163.333L123.054 142.226C123.054 140.42 124.523 138.957 126.336 138.957L127.976 138.957C129.789 138.957 131.258 140.42 131.258 142.226L131.258 167.565C131.258 174.337 125.748 179.826 118.952 179.826L110.749 179.826C103.953 179.826 98.4433 174.337 98.4433 167.565Z" fill="#99261D"/>
<path d="M32.8144 167.565L32.8144 142.226C32.8144 140.42 34.2828 138.957 36.0958 138.957L37.7365 138.957C39.5496 138.957 41.018 140.42 41.018 142.226L41.018 163.478C41.018 165.734 41.9368 167.778 43.4217 169.257C44.9065 170.737 46.9246 171.638 49.1675 171.652C53.709 171.682 57.4253 167.86 57.4253 163.333L57.4253 142.226C57.4253 140.42 58.8937 138.957 60.7067 138.957L62.3475 138.957C64.1605 138.957 65.6289 140.42 65.6289 142.226L65.6289 167.565C65.6289 174.337 60.1193 179.826 53.3235 179.826L45.1198 179.826C38.3239 179.826 32.8144 174.337 32.8144 167.565Z" fill="#99261D"/>
<path d="M737.119 138.956L739.536 138.956C741.336 138.956 742.842 140.23 743.021 141.901L746.506 174.434C746.814 177.322 744.386 179.828 741.278 179.828L735.378 179.828C732.271 179.828 729.843 177.323 730.151 174.434L733.636 141.901C733.815 140.23 735.321 138.956 737.121 138.956L737.119 138.956Z" fill="#BF1D1D"/>
<path d="M802.749 179.826L805.165 179.826C806.965 179.826 808.471 178.552 808.65 176.881L812.135 144.348C812.444 141.461 810.015 138.955 806.908 138.955L801.008 138.955C797.9 138.955 795.472 141.459 795.78 144.348L799.265 176.881C799.444 178.552 800.95 179.826 802.75 179.826L802.749 179.826Z" fill="#BF1D1D"/>
<path d="M605.861 138.956L608.278 138.956C610.078 138.956 611.584 140.23 611.763 141.901L615.247 174.434C615.556 177.322 613.128 179.828 610.02 179.828L604.12 179.828C601.013 179.828 598.584 177.323 598.893 174.434L602.378 141.901C602.556 140.23 604.063 138.956 605.863 138.956L605.861 138.956Z" fill="#BF1D1D"/>
<path d="M671.49 179.826L673.907 179.826C675.707 179.826 677.213 178.553 677.392 176.882L680.877 144.348C681.185 141.461 678.757 138.955 675.65 138.955L669.749 138.955C666.642 138.955 664.214 141.459 664.522 144.348L668.007 176.882C668.186 178.553 669.692 179.826 671.492 179.826L671.49 179.826Z" fill="#BF1D1D"/>
<path d="M474.603 138.956L477.019 138.956C478.819 138.956 480.325 140.23 480.504 141.901L483.989 174.434C484.298 177.322 481.869 179.828 478.762 179.828L472.862 179.828C469.754 179.828 467.326 177.323 467.634 174.434L471.119 141.901C471.298 140.23 472.804 138.956 474.604 138.956L474.603 138.956Z" fill="#BF1D1D"/>
<path d="M540.231 179.826L542.648 179.826C544.448 179.826 545.954 178.553 546.133 176.882L549.618 144.348C549.927 141.461 547.498 138.955 544.391 138.955L538.491 138.955C535.383 138.955 532.955 141.459 533.263 144.348L536.748 176.882C536.927 178.553 538.433 179.826 540.233 179.826L540.231 179.826Z" fill="#BF1D1D"/>
<path d="M343.345 138.956L345.762 138.956C347.561 138.956 349.068 140.23 349.246 141.901L352.731 174.434C353.04 177.322 350.612 179.828 347.504 179.828L341.604 179.828C338.496 179.828 336.068 177.323 336.377 174.434L339.861 141.901C340.04 140.23 341.546 138.956 343.346 138.956L343.345 138.956Z" fill="#BF1D1D"/>
<path d="M408.974 179.826L411.39 179.826C413.19 179.826 414.697 178.553 414.875 176.882L418.36 144.348C418.669 141.461 416.24 138.955 413.133 138.955L407.233 138.955C404.125 138.955 401.697 141.459 402.005 144.348L405.49 176.882C405.669 178.553 407.175 179.826 408.975 179.826L408.974 179.826Z" fill="#BF1D1D"/>
<path d="M212.086 138.956L214.503 138.956C216.303 138.956 217.809 140.23 217.988 141.901L221.473 174.434C221.782 177.322 219.353 179.828 216.246 179.828L210.346 179.828C207.238 179.828 204.81 177.323 205.118 174.434L208.603 141.901C208.782 140.23 210.288 138.956 212.088 138.956L212.086 138.956Z" fill="#BF1D1D"/>
<path d="M277.716 179.826L280.133 179.826C281.933 179.826 283.439 178.553 283.618 176.882L287.102 144.348C287.411 141.461 284.983 138.955 281.875 138.955L275.975 138.955C272.867 138.955 270.439 141.459 270.748 144.348L274.233 176.882C274.411 178.553 275.918 179.826 277.717 179.826L277.716 179.826Z" fill="#BF1D1D"/>
<path d="M80.8277 138.956L83.2445 138.956C85.0443 138.956 86.5505 140.23 86.7293 141.901L90.2143 174.434C90.5227 177.322 88.0945 179.828 84.9869 179.828L79.0868 179.828C75.9793 179.828 73.551 177.323 73.8595 174.434L77.3444 141.901C77.5233 140.23 79.0294 138.956 80.8293 138.956L80.8277 138.956Z" fill="#BF1D1D"/>
<path d="M146.457 179.826L148.874 179.826C150.674 179.826 152.18 178.553 152.359 176.882L155.844 144.348C156.152 141.461 153.724 138.955 150.616 138.955L144.716 138.955C141.609 138.955 139.18 141.459 139.489 144.348L142.974 176.882C143.153 178.553 144.659 179.826 146.459 179.826L146.457 179.826Z" fill="#BF1D1D"/>
<path d="M15.1993 179.826L17.616 179.826C19.4159 179.826 20.9221 178.553 21.1009 176.882L24.5859 144.348C24.8943 141.461 22.4661 138.955 19.3585 138.955L13.4584 138.955C10.3509 138.955 7.9226 141.459 8.23105 144.348L11.716 176.882C11.8948 178.553 13.401 179.826 15.2009 179.826L15.1993 179.826Z" fill="#BF1D1D"/>
<path d="M787.548 81.7391C783.018 81.7391 779.345 86.3135 779.345 91.9564C779.345 97.5993 783.018 102.174 787.548 102.174C792.079 102.174 795.752 97.5993 795.752 91.9564C795.752 86.3135 792.079 81.7391 787.548 81.7391Z" fill="#BF1D1D"/>
<path d="M754.734 81.7391C750.203 81.7391 746.53 86.3135 746.53 91.9564C746.53 97.5993 750.203 102.174 754.734 102.174C759.265 102.174 762.938 97.5993 762.938 91.9564C762.938 86.3135 759.265 81.7391 754.734 81.7391Z" fill="#EC8522"/>
<path d="M721.919 81.7391C717.388 81.7391 713.715 86.3135 713.715 91.9564C713.715 97.5993 717.388 102.174 721.919 102.174C726.45 102.174 730.123 97.5993 730.123 91.9564C730.123 86.3135 726.45 81.7391 721.919 81.7391Z" fill="#BF1D1D"/>
<path d="M689.105 81.7391C684.574 81.7391 680.901 86.3135 680.901 91.9564C680.901 97.5993 684.574 102.174 689.105 102.174C693.636 102.174 697.309 97.5993 697.309 91.9564C697.309 86.3135 693.636 81.7391 689.105 81.7391Z" fill="#EC8522"/>
<path d="M656.29 81.7391C651.759 81.7391 648.086 86.3135 648.086 91.9564C648.086 97.5993 651.759 102.174 656.29 102.174C660.821 102.174 664.494 97.5993 664.494 91.9564C664.494 86.3135 660.821 81.7391 656.29 81.7391Z" fill="#BF1D1D"/>
<path d="M623.476 81.7391C618.945 81.7391 615.272 86.3135 615.272 91.9564C615.272 97.5993 618.945 102.174 623.476 102.174C628.007 102.174 631.68 97.5993 631.68 91.9564C631.68 86.3135 628.007 81.7391 623.476 81.7391Z" fill="#EC8522"/>
<path d="M590.662 81.7391C586.131 81.7391 582.458 86.3135 582.458 91.9564C582.458 97.5993 586.131 102.174 590.662 102.174C595.192 102.174 598.865 97.5993 598.865 91.9564C598.865 86.3135 595.192 81.7391 590.662 81.7391Z" fill="#BF1D1D"/>
<path d="M557.847 81.7391C553.316 81.7391 549.643 86.3135 549.643 91.9564C549.643 97.5993 553.316 102.174 557.847 102.174C562.377 102.174 566.05 97.5993 566.05 91.9564C566.05 86.3135 562.377 81.7391 557.847 81.7391Z" fill="#EC8522"/>
<path d="M525.032 81.7391C520.501 81.7391 516.828 86.3135 516.828 91.9564C516.828 97.5993 520.501 102.174 525.032 102.174C529.562 102.174 533.235 97.5993 533.235 91.9564C533.235 86.3135 529.562 81.7391 525.032 81.7391Z" fill="#BF1D1D"/>
<path d="M492.217 81.7391C487.687 81.7391 484.014 86.3135 484.014 91.9564C484.014 97.5993 487.687 102.174 492.217 102.174C496.748 102.174 500.421 97.5993 500.421 91.9564C500.421 86.3135 496.748 81.7391 492.217 81.7391Z" fill="#EC8522"/>
<path d="M459.402 81.7391C454.872 81.7391 451.199 86.3135 451.199 91.9564C451.199 97.5993 454.872 102.174 459.402 102.174C463.933 102.174 467.606 97.5993 467.606 91.9564C467.606 86.3135 463.933 81.7391 459.402 81.7391Z" fill="#BF1D1D"/>
<path d="M426.588 81.7391C422.058 81.7391 418.385 86.3135 418.385 91.9564C418.385 97.5993 422.058 102.174 426.588 102.174C431.119 102.174 434.792 97.5993 434.792 91.9564C434.792 86.3135 431.119 81.7391 426.588 81.7391Z" fill="#EC8522"/>
<path d="M393.774 81.7391C389.243 81.7391 385.57 86.3135 385.57 91.9564C385.57 97.5993 389.243 102.174 393.774 102.174C398.305 102.174 401.978 97.5993 401.978 91.9564C401.978 86.3135 398.305 81.7391 393.774 81.7391Z" fill="#BF1D1D"/>
<path d="M360.959 81.7391C356.429 81.7391 352.756 86.3135 352.756 91.9564C352.756 97.5993 356.429 102.174 360.959 102.174C365.49 102.174 369.163 97.5993 369.163 91.9564C369.163 86.3135 365.49 81.7391 360.959 81.7391Z" fill="#EC8522"/>
<path d="M328.145 81.7391C323.614 81.7391 319.941 86.3135 319.941 91.9564C319.941 97.5993 323.614 102.174 328.145 102.174C332.675 102.174 336.348 97.5993 336.348 91.9564C336.348 86.3135 332.675 81.7391 328.145 81.7391Z" fill="#BF1D1D"/>
<path d="M295.33 81.7391C290.799 81.7391 287.126 86.3135 287.126 91.9564C287.126 97.5993 290.799 102.174 295.33 102.174C299.861 102.174 303.534 97.5993 303.534 91.9564C303.534 86.3135 299.861 81.7391 295.33 81.7391Z" fill="#EC8522"/>
<path d="M262.516 81.7391C257.985 81.7391 254.312 86.3135 254.312 91.9564C254.312 97.5993 257.985 102.174 262.516 102.174C267.046 102.174 270.719 97.5993 270.719 91.9564C270.719 86.3135 267.046 81.7391 262.516 81.7391Z" fill="#BF1D1D"/>
<path d="M229.701 81.7391C225.17 81.7391 221.498 86.3135 221.498 91.9564C221.498 97.5993 225.17 102.174 229.701 102.174C234.232 102.174 237.905 97.5993 237.905 91.9564C237.905 86.3135 234.232 81.7391 229.701 81.7391Z" fill="#EC8522"/>
<path d="M196.887 81.7391C192.356 81.7391 188.683 86.3135 188.683 91.9564C188.683 97.5993 192.356 102.174 196.887 102.174C201.417 102.174 205.09 97.5993 205.09 91.9564C205.09 86.3135 201.417 81.7391 196.887 81.7391Z" fill="#BF1D1D"/>
<path d="M164.072 81.7391C159.542 81.7391 155.869 86.3135 155.869 91.9564C155.869 97.5993 159.542 102.174 164.072 102.174C168.603 102.174 172.276 97.5993 172.276 91.9564C172.276 86.3135 168.603 81.7391 164.072 81.7391Z" fill="#EC8522"/>
<path d="M131.257 81.7391C126.727 81.7391 123.054 86.3135 123.054 91.9564C123.054 97.5993 126.727 102.174 131.257 102.174C135.788 102.174 139.461 97.5993 139.461 91.9564C139.461 86.3135 135.788 81.7391 131.257 81.7391Z" fill="#BF1D1D"/>
<path d="M98.4429 81.7391C93.9121 81.7391 90.2392 86.3135 90.2392 91.9564C90.2392 97.5993 93.9121 102.174 98.4428 102.174C102.974 102.174 106.646 97.5993 106.646 91.9564C106.646 86.3135 102.974 81.7391 98.4429 81.7391Z" fill="#EC8522"/>
<path d="M65.6279 81.7391C61.0972 81.7391 57.4243 86.3135 57.4243 91.9564C57.4243 97.5993 61.0972 102.174 65.6279 102.174C70.1587 102.174 73.8315 97.5993 73.8315 91.9564C73.8315 86.3135 70.1587 81.7391 65.6279 81.7391Z" fill="#BF1D1D"/>
<path d="M32.8135 81.7391C28.2827 81.7391 24.6098 86.3135 24.6098 91.9564C24.6098 97.5993 28.2827 102.174 32.8135 102.174C37.3442 102.174 41.0171 97.5993 41.0171 91.9564C41.0171 86.3135 37.3442 81.7391 32.8135 81.7391Z" fill="#EC8522"/>
<path d="M-0.000244141 73.5654L820.363 73.5654L820.363 65.3915L-0.000243426 65.3914L-0.000244141 73.5654Z" fill="#EC8522"/>
</g>
<g clip-path="url(#clip3_571_81332)">
<path d="M820.364 188L1640.73 188L1640.73 130.783L820.364 130.783L820.364 188Z" fill="#EC8522"/>
<path d="M820.364 65.391L1640.73 65.3911L1640.73 24.5216L820.364 24.5215L820.364 65.391Z" fill="#BF1D1D"/>
<path d="M820.364 130.783L1640.73 130.783L1640.73 73.5654L820.364 73.5653L820.364 130.783Z" fill="#99261D"/>
<path d="M853.178 130.783L1640.73 130.783L1627.99 108.265C1626.48 105.592 1622.16 105.592 1620.65 108.265L1616.05 116.397L1609.62 127.775C1609.5 127.981 1609.34 128.167 1609.14 128.299C1608.42 128.778 1607.4 128.778 1606.68 128.299C1606.49 128.17 1606.33 127.987 1606.22 127.785L1602.63 121.446L1599.77 116.398L1595.17 108.267C1593.66 105.594 1589.35 105.594 1587.84 108.267L1583.24 116.398L1580.38 121.446L1576.79 127.785C1576.68 127.987 1576.53 128.169 1576.33 128.299C1575.61 128.778 1574.59 128.778 1573.87 128.299C1573.67 128.17 1573.52 127.987 1573.4 127.785L1569.82 121.446L1566.96 116.398L1562.36 108.267C1560.85 105.594 1556.53 105.594 1555.02 108.267L1550.42 116.398L1547.56 121.446L1543.98 127.785C1543.86 127.987 1543.71 128.169 1543.52 128.299C1542.79 128.778 1541.77 128.778 1541.05 128.299C1540.86 128.17 1540.7 127.987 1540.59 127.785L1537 121.446L1534.15 116.398L1529.54 108.267C1528.03 105.594 1523.72 105.594 1522.21 108.267L1517.61 116.398L1514.75 121.446L1511.17 127.785C1511.05 127.987 1510.9 128.169 1510.7 128.299C1509.98 128.778 1508.96 128.778 1508.24 128.299C1508.04 128.17 1507.89 127.987 1507.77 127.785L1504.19 121.446L1501.33 116.398L1496.73 108.267C1495.22 105.594 1490.9 105.594 1489.39 108.267L1484.79 116.398L1481.94 121.446L1478.35 127.785C1478.23 127.987 1478.08 128.169 1477.89 128.299C1477.16 128.778 1476.14 128.778 1475.42 128.299C1475.23 128.17 1475.07 127.987 1474.96 127.785L1471.37 121.446L1468.52 116.398L1463.92 108.267C1462.4 105.594 1458.09 105.594 1456.58 108.267L1451.98 116.398L1449.12 121.446L1445.54 127.785C1445.42 127.987 1445.27 128.169 1445.07 128.299C1444.35 128.778 1443.33 128.778 1442.61 128.299C1442.41 128.17 1442.26 127.987 1442.14 127.785L1438.56 121.446L1435.7 116.398L1431.1 108.267C1429.59 105.594 1425.27 105.594 1423.76 108.267L1419.16 116.398L1416.31 121.446L1412.72 127.785C1412.61 127.987 1412.45 128.169 1412.26 128.299C1411.54 128.778 1410.51 128.778 1409.79 128.299C1409.6 128.17 1409.45 127.987 1409.33 127.785L1405.74 121.446L1402.89 116.398L1398.29 108.267C1396.78 105.594 1392.46 105.594 1390.95 108.267L1386.35 116.398L1383.49 121.446L1379.91 127.785C1379.79 127.987 1379.64 128.169 1379.44 128.299C1378.72 128.778 1377.7 128.778 1376.98 128.299C1376.78 128.17 1376.63 127.987 1376.51 127.785L1372.93 121.446L1370.07 116.398L1365.47 108.267C1363.96 105.594 1359.65 105.594 1358.13 108.267L1353.53 116.398L1350.68 121.446L1347.09 127.784C1346.98 127.987 1346.82 128.169 1346.63 128.299C1345.91 128.778 1344.89 128.778 1344.16 128.299C1343.97 128.17 1343.82 127.987 1343.7 127.784L1340.11 121.446L1337.26 116.398L1332.66 108.267C1331.15 105.594 1326.83 105.594 1325.32 108.267L1320.72 116.398L1317.86 121.446L1314.28 127.784C1314.16 127.987 1314.01 128.169 1313.81 128.299C1313.09 128.778 1312.07 128.778 1311.35 128.299C1311.15 128.17 1311 127.987 1310.89 127.784L1307.3 121.446L1304.44 116.398L1299.84 108.267C1298.33 105.594 1294.02 105.594 1292.51 108.267L1287.91 116.398L1285.05 121.446L1281.46 127.784C1281.35 127.987 1281.19 128.169 1281 128.299C1280.28 128.778 1279.26 128.778 1278.53 128.299C1278.34 128.17 1278.19 127.987 1278.07 127.784L1274.49 121.446L1271.63 116.398L1267.03 108.267C1265.52 105.594 1261.2 105.594 1259.69 108.267L1255.09 116.398L1252.23 121.446L1248.65 127.784C1248.53 127.987 1248.38 128.169 1248.18 128.299C1247.46 128.778 1246.44 128.778 1245.72 128.299C1245.53 128.17 1245.37 127.987 1245.26 127.784L1241.67 121.446L1238.81 116.398L1234.21 108.267C1232.7 105.594 1228.39 105.594 1226.88 108.267L1222.28 116.398L1219.42 121.446L1215.83 127.784C1215.72 127.987 1215.57 128.169 1215.37 128.299C1214.65 128.778 1213.63 128.778 1212.91 128.299C1212.71 128.17 1212.56 127.987 1212.44 127.784L1208.86 121.446L1206 116.398L1201.4 108.267C1199.89 105.594 1195.57 105.594 1194.06 108.267L1189.46 116.398L1186.6 121.446L1183.02 127.784C1182.9 127.987 1182.75 128.169 1182.56 128.299C1181.83 128.778 1180.81 128.778 1180.09 128.299C1179.9 128.17 1179.74 127.987 1179.63 127.784L1176.04 121.446L1173.19 116.398L1168.58 108.267C1167.07 105.594 1162.76 105.594 1161.25 108.267L1156.65 116.398L1153.79 121.446L1150.21 127.784C1150.09 127.987 1149.94 128.169 1149.74 128.299C1149.02 128.778 1148 128.778 1147.28 128.299C1147.08 128.17 1146.93 127.987 1146.81 127.784L1143.23 121.446L1140.37 116.398L1135.77 108.267C1134.26 105.594 1129.94 105.594 1128.43 108.267L1123.83 116.398L1120.98 121.446L1117.39 127.784C1117.27 127.987 1117.12 128.169 1116.93 128.299C1116.2 128.778 1115.18 128.778 1114.46 128.299C1114.27 128.17 1114.11 127.987 1114 127.784L1110.41 121.446L1107.56 116.398L1102.96 108.267C1101.44 105.594 1097.13 105.594 1095.62 108.267L1091.02 116.398L1088.16 121.446L1084.58 127.784C1084.46 127.987 1084.31 128.169 1084.11 128.299C1083.39 128.778 1082.37 128.778 1081.65 128.299C1081.45 128.17 1081.3 127.987 1081.18 127.784L1077.6 121.446L1074.74 116.398L1070.14 108.267C1068.63 105.594 1064.32 105.594 1062.8 108.267L1058.2 116.398L1055.35 121.446L1051.76 127.784C1051.65 127.987 1051.49 128.169 1051.3 128.299C1050.58 128.778 1049.56 128.778 1048.83 128.299C1048.64 128.17 1048.49 127.987 1048.37 127.784L1044.78 121.446L1041.93 116.398L1037.33 108.267C1035.82 105.594 1031.5 105.594 1029.99 108.267L1025.39 116.398L1022.53 121.446L1018.95 127.784C1018.83 127.987 1018.68 128.169 1018.48 128.299C1017.76 128.778 1016.74 128.778 1016.02 128.299C1015.82 128.17 1015.67 127.987 1015.55 127.784L1011.97 121.446L1009.11 116.398L1004.51 108.267C1003 105.594 998.686 105.594 997.175 108.267L992.574 116.398L989.718 121.446L986.133 127.784C986.016 127.987 985.864 128.169 985.668 128.299C984.946 128.778 983.926 128.778 983.204 128.299C983.009 128.17 982.856 127.987 982.74 127.784L979.155 121.446L976.298 116.398L971.698 108.267C970.187 105.594 965.871 105.594 964.36 108.267L959.76 116.398L956.903 121.446L953.318 127.784C953.202 127.987 953.049 128.169 952.854 128.299C952.132 128.778 951.111 128.778 950.39 128.299C950.194 128.17 950.042 127.987 949.925 127.784L946.34 121.446L943.484 116.398L938.883 108.267C937.372 105.594 933.057 105.594 931.546 108.267L926.945 116.398L924.089 121.446L920.504 127.784C920.387 127.987 920.235 128.169 920.039 128.299C919.317 128.778 918.297 128.778 917.575 128.299C917.38 128.17 917.227 127.987 917.111 127.784L913.526 121.446L910.669 116.398L906.068 108.267C904.557 105.594 900.242 105.594 898.731 108.267L894.131 116.398L891.274 121.446L887.689 127.784C887.573 127.987 887.42 128.169 887.225 128.299C886.503 128.778 885.482 128.778 884.76 128.299C884.565 128.17 884.413 127.987 884.296 127.784L880.711 121.446L877.855 116.398L873.254 108.267C871.743 105.594 867.428 105.594 865.917 108.267L861.316 116.398L858.46 121.446L854.875 127.784C854.758 127.987 854.605 128.169 854.41 128.299C853.688 128.778 852.668 128.778 851.946 128.299C851.747 128.169 851.591 127.982 851.475 127.775L845.04 116.397L840.439 108.265C838.928 105.592 834.613 105.592 833.102 108.265L820.364 130.783L853.178 130.783Z" fill="#BF1D1D"/>
<path d="M853.178 24.5219L1640.73 24.522L1627.99 2.00449C1626.48 -0.66838 1622.16 -0.66838 1620.65 2.00449L1616.05 10.1359L1609.62 21.514C1609.5 21.7199 1609.34 21.9063 1609.14 22.0387C1608.42 22.5177 1607.4 22.5177 1606.68 22.0387C1606.49 21.9096 1606.33 21.7265 1606.22 21.5238L1602.63 15.1857L1599.77 10.1375L1595.17 2.00612C1593.66 -0.666746 1589.35 -0.666747 1587.84 2.00612L1583.24 10.1375L1580.38 15.1857L1576.79 21.5238C1576.68 21.7265 1576.53 21.908 1576.33 22.0387C1575.61 22.5177 1574.59 22.5177 1573.87 22.0387C1573.67 21.9096 1573.52 21.7265 1573.4 21.5238L1569.82 15.1857L1566.96 10.1375L1562.36 2.00612C1560.85 -0.666749 1556.53 -0.66675 1555.02 2.00612L1550.42 10.1375L1547.56 15.1857L1543.98 21.5238C1543.86 21.7265 1543.71 21.9079 1543.52 22.0387C1542.79 22.5177 1541.77 22.5177 1541.05 22.0387C1540.86 21.9096 1540.7 21.7265 1540.59 21.5238L1537 15.1857L1534.15 10.1375L1529.54 2.00612C1528.03 -0.666752 1523.72 -0.666753 1522.21 2.00612L1517.61 10.1375L1514.75 15.1857L1511.17 21.5238C1511.05 21.7265 1510.9 21.9079 1510.7 22.0387C1509.98 22.5177 1508.96 22.5177 1508.24 22.0387C1508.04 21.9096 1507.89 21.7265 1507.77 21.5238L1504.19 15.1857L1501.33 10.1375L1496.73 2.00611C1495.22 -0.666755 1490.9 -0.666755 1489.39 2.00611L1484.79 10.1375L1481.94 15.1857L1478.35 21.5238C1478.23 21.7265 1478.08 21.9079 1477.89 22.0387C1477.16 22.5177 1476.14 22.5177 1475.42 22.0387C1475.23 21.9096 1475.07 21.7265 1474.96 21.5238L1471.37 15.1857L1468.52 10.1375L1463.92 2.00611C1462.4 -0.666758 1458.09 -0.666758 1456.58 2.00611L1451.98 10.1375L1449.12 15.1857L1445.54 21.5238C1445.42 21.7265 1445.27 21.9079 1445.07 22.0387C1444.35 22.5177 1443.33 22.5177 1442.61 22.0387C1442.41 21.9096 1442.26 21.7265 1442.14 21.5238L1438.56 15.1857L1435.7 10.1375L1431.1 2.00611C1429.59 -0.666761 1425.27 -0.666761 1423.76 2.00611L1419.16 10.1375L1416.31 15.1857L1412.72 21.5238C1412.61 21.7265 1412.45 21.9079 1412.26 22.0387C1411.54 22.5177 1410.51 22.5177 1409.79 22.0387C1409.6 21.9096 1409.45 21.7265 1409.33 21.5238L1405.74 15.1857L1402.89 10.1375L1398.29 2.00611C1396.78 -0.666764 1392.46 -0.666764 1390.95 2.0061L1386.35 10.1375L1383.49 15.1857L1379.91 21.5238C1379.79 21.7265 1379.64 21.9079 1379.44 22.0387C1378.72 22.5177 1377.7 22.5177 1376.98 22.0387C1376.78 21.9096 1376.63 21.7265 1376.51 21.5238L1372.93 15.1857L1370.07 10.1375L1365.47 2.0061C1363.96 -0.666767 1359.65 -0.666767 1358.13 2.0061L1353.53 10.1375L1350.68 15.1857L1347.09 21.5238C1346.98 21.7265 1346.82 21.9079 1346.63 22.0387C1345.91 22.5177 1344.89 22.5177 1344.16 22.0387C1343.97 21.9096 1343.82 21.7265 1343.7 21.5238L1340.11 15.1857L1337.26 10.1375L1332.66 2.0061C1331.15 -0.666769 1326.83 -0.66677 1325.32 2.0061L1320.72 10.1375L1317.86 15.1857L1314.28 21.5237C1314.16 21.7265 1314.01 21.9079 1313.81 22.0387C1313.09 22.5177 1312.07 22.5177 1311.35 22.0387C1311.15 21.9096 1311 21.7265 1310.89 21.5237L1307.3 15.1857L1304.44 10.1375L1299.84 2.0061C1298.33 -0.666772 1294.02 -0.666773 1292.51 2.0061L1287.91 10.1375L1285.05 15.1857L1281.46 21.5237C1281.35 21.7265 1281.19 21.9079 1281 22.0387C1280.28 22.5177 1279.26 22.5177 1278.53 22.0387C1278.34 21.9096 1278.19 21.7265 1278.07 21.5237L1274.49 15.1857L1271.63 10.1375L1267.03 2.00609C1265.52 -0.666775 1261.2 -0.666776 1259.69 2.00609L1255.09 10.1375L1252.23 15.1857L1248.65 21.5237C1248.53 21.7265 1248.38 21.9079 1248.18 22.0387C1247.46 22.5177 1246.44 22.5177 1245.72 22.0387C1245.53 21.9096 1245.37 21.7265 1245.26 21.5237L1241.67 15.1857L1238.81 10.1375L1234.21 2.00609C1232.7 -0.666778 1228.39 -0.666778 1226.88 2.00609L1222.28 10.1375L1219.42 15.1857L1215.83 21.5237C1215.72 21.7265 1215.57 21.9079 1215.37 22.0387C1214.65 22.5177 1213.63 22.5177 1212.91 22.0387C1212.71 21.9096 1212.56 21.7265 1212.44 21.5237L1208.86 15.1857L1206 10.1375L1201.4 2.00609C1199.89 -0.666781 1195.57 -0.666781 1194.06 2.00609L1189.46 10.1375L1186.6 15.1857L1183.02 21.5237C1182.9 21.7265 1182.75 21.9079 1182.56 22.0387C1181.83 22.5177 1180.81 22.5177 1180.09 22.0387C1179.9 21.9096 1179.74 21.7265 1179.63 21.5237L1176.04 15.1857L1173.19 10.1375L1168.58 2.00609C1167.07 -0.666784 1162.76 -0.666784 1161.25 2.00608L1156.65 10.1375L1153.79 15.1857L1150.21 21.5237C1150.09 21.7264 1149.94 21.9079 1149.74 22.0387C1149.02 22.5177 1148 22.5177 1147.28 22.0387C1147.08 21.9095 1146.93 21.7264 1146.81 21.5237L1143.23 15.1857L1140.37 10.1375L1135.77 2.00608C1134.26 -0.666787 1129.94 -0.666787 1128.43 2.00608L1123.83 10.1375L1120.98 15.1857L1117.39 21.5237C1117.27 21.7264 1117.12 21.9079 1116.93 22.0387C1116.2 22.5177 1115.18 22.5177 1114.46 22.0387C1114.27 21.9095 1114.11 21.7264 1114 21.5237L1110.41 15.1857L1107.56 10.1375L1102.96 2.00608C1101.44 -0.666789 1097.13 -0.66679 1095.62 2.00608L1091.02 10.1375L1088.16 15.1857L1084.58 21.5237C1084.46 21.7264 1084.31 21.9079 1084.11 22.0387C1083.39 22.5177 1082.37 22.5177 1081.65 22.0387C1081.45 21.9095 1081.3 21.7264 1081.18 21.5237L1077.6 15.1857L1074.74 10.1375L1070.14 2.00608C1068.63 -0.666792 1064.32 -0.666793 1062.8 2.00608L1058.2 10.1375L1055.35 15.1857L1051.76 21.5237C1051.65 21.7264 1051.49 21.9079 1051.3 22.0387C1050.58 22.5177 1049.56 22.5177 1048.83 22.0387C1048.64 21.9095 1048.49 21.7264 1048.37 21.5237L1044.78 15.1857L1041.93 10.1375L1037.33 2.00607C1035.82 -0.666795 1031.5 -0.666796 1029.99 2.00607L1025.39 10.1375L1022.53 15.1857L1018.95 21.5237C1018.83 21.7264 1018.68 21.9079 1018.48 22.0387C1017.76 22.5177 1016.74 22.5177 1016.02 22.0387C1015.82 21.9095 1015.67 21.7264 1015.55 21.5237L1011.97 15.1857L1009.11 10.1375L1004.51 2.00607C1003 -0.666798 998.686 -0.666798 997.175 2.00607L992.574 10.1375L989.718 15.1857L986.133 21.5237C986.016 21.7264 985.864 21.9079 985.668 22.0387C984.946 22.5177 983.926 22.5177 983.204 22.0387C983.009 21.9095 982.856 21.7264 982.74 21.5237L979.155 15.1857L976.298 10.1375L971.698 2.00607C970.187 -0.666801 965.871 -0.666801 964.36 2.00607L959.76 10.1375L956.903 15.1857L953.318 21.5237C953.202 21.7264 953.049 21.9079 952.854 22.0387C952.132 22.5177 951.111 22.5177 950.39 22.0387C950.194 21.9095 950.042 21.7264 949.925 21.5237L946.34 15.1857L943.484 10.1375L938.883 2.00607C937.372 -0.666804 933.057 -0.666804 931.546 2.00606L926.945 10.1375L924.089 15.1857L920.504 21.5237C920.387 21.7264 920.235 21.9079 920.039 22.0387C919.317 22.5177 918.297 22.5177 917.575 22.0387C917.38 21.9095 917.227 21.7264 917.111 21.5237L913.526 15.1857L910.669 10.1375L906.068 2.00606C904.557 -0.666807 900.242 -0.666807 898.731 2.00606L894.131 10.1375L891.274 15.1857L887.689 21.5237C887.573 21.7264 887.42 21.9079 887.225 22.0387C886.503 22.5177 885.482 22.5177 884.76 22.0387C884.565 21.9095 884.413 21.7264 884.296 21.5237L880.711 15.1857L877.855 10.1375L873.254 2.00606C871.743 -0.66681 867.428 -0.66681 865.917 2.00606L861.316 10.1375L858.46 15.1857L854.875 21.5237C854.758 21.7264 854.605 21.9079 854.41 22.0387C853.688 22.5177 852.668 22.5177 851.946 22.0387C851.747 21.9079 851.591 21.7215 851.475 21.5139L845.04 10.1358L840.439 2.00442C838.928 -0.668449 834.613 -0.668449 833.102 2.00442L820.364 24.5219L853.178 24.5219Z" fill="#99261D"/>
<path d="M853.178 65.391L1640.73 65.3911L1627.99 42.8736C1626.48 40.2008 1622.16 40.2008 1620.65 42.8736L1616.05 51.005L1609.62 62.3831C1609.5 62.5891 1609.34 62.7755 1609.14 62.9079C1608.42 63.3869 1607.4 63.3869 1606.68 62.9079C1606.49 62.7787 1606.33 62.5956 1606.22 62.3929L1602.63 56.0549L1599.77 51.0067L1595.17 42.8753C1593.66 40.2024 1589.35 40.2024 1587.84 42.8753L1583.24 51.0067L1580.38 56.0549L1576.79 62.3929C1576.68 62.5956 1576.53 62.7771 1576.33 62.9079C1575.61 63.3869 1574.59 63.3869 1573.87 62.9079C1573.67 62.7787 1573.52 62.5956 1573.4 62.3929L1569.82 56.0549L1566.96 51.0067L1562.36 42.8753C1560.85 40.2024 1556.53 40.2024 1555.02 42.8753L1550.42 51.0067L1547.56 56.0549L1543.98 62.3929C1543.86 62.5956 1543.71 62.7771 1543.52 62.9079C1542.79 63.3869 1541.77 63.3869 1541.05 62.9079C1540.86 62.7787 1540.7 62.5956 1540.59 62.3929L1537 56.0549L1534.15 51.0067L1529.54 42.8753C1528.03 40.2024 1523.72 40.2024 1522.21 42.8753L1517.61 51.0067L1514.75 56.0549L1511.17 62.3929C1511.05 62.5956 1510.9 62.7771 1510.7 62.9079C1509.98 63.3869 1508.96 63.3869 1508.24 62.9079C1508.04 62.7787 1507.89 62.5956 1507.77 62.3929L1504.19 56.0549L1501.33 51.0067L1496.73 42.8753C1495.22 40.2024 1490.9 40.2024 1489.39 42.8753L1484.79 51.0067L1481.94 56.0549L1478.35 62.3929C1478.23 62.5956 1478.08 62.7771 1477.89 62.9079C1477.16 63.3869 1476.14 63.3869 1475.42 62.9079C1475.23 62.7787 1475.07 62.5956 1474.96 62.3929L1471.37 56.0549L1468.52 51.0067L1463.92 42.8753C1462.4 40.2024 1458.09 40.2024 1456.58 42.8753L1451.98 51.0067L1449.12 56.0549L1445.54 62.3929C1445.42 62.5956 1445.27 62.7771 1445.07 62.9079C1444.35 63.3869 1443.33 63.3869 1442.61 62.9079C1442.41 62.7787 1442.26 62.5956 1442.14 62.3929L1438.56 56.0549L1435.7 51.0067L1431.1 42.8752C1429.59 40.2024 1425.27 40.2024 1423.76 42.8752L1419.16 51.0067L1416.31 56.0549L1412.72 62.3929C1412.61 62.5956 1412.45 62.7771 1412.26 62.9079C1411.54 63.3869 1410.51 63.3869 1409.79 62.9079C1409.6 62.7787 1409.45 62.5956 1409.33 62.3929L1405.74 56.0549L1402.89 51.0066L1398.29 42.8752C1396.78 40.2024 1392.46 40.2024 1390.95 42.8752L1386.35 51.0066L1383.49 56.0549L1379.91 62.3929C1379.79 62.5956 1379.64 62.7771 1379.44 62.9079C1378.72 63.3868 1377.7 63.3868 1376.98 62.9079C1376.78 62.7787 1376.63 62.5956 1376.51 62.3929L1372.93 56.0549L1370.07 51.0066L1365.47 42.8752C1363.96 40.2024 1359.65 40.2024 1358.13 42.8752L1353.53 51.0066L1350.68 56.0549L1347.09 62.3929C1346.98 62.5956 1346.82 62.7771 1346.63 62.9079C1345.91 63.3868 1344.89 63.3868 1344.16 62.9079C1343.97 62.7787 1343.82 62.5956 1343.7 62.3929L1340.11 56.0549L1337.26 51.0066L1332.66 42.8752C1331.15 40.2024 1326.83 40.2024 1325.32 42.8752L1320.72 51.0066L1317.86 56.0548L1314.28 62.3929C1314.16 62.5956 1314.01 62.7771 1313.81 62.9079C1313.09 63.3868 1312.07 63.3868 1311.35 62.9079C1311.15 62.7787 1311 62.5956 1310.89 62.3929L1307.3 56.0548L1304.44 51.0066L1299.84 42.8752C1298.33 40.2024 1294.02 40.2024 1292.51 42.8752L1287.91 51.0066L1285.05 56.0548L1281.46 62.3929C1281.35 62.5956 1281.19 62.7771 1281 62.9078C1280.28 63.3868 1279.26 63.3868 1278.53 62.9078C1278.34 62.7787 1278.19 62.5956 1278.07 62.3929L1274.49 56.0548L1271.63 51.0066L1267.03 42.8752C1265.52 40.2024 1261.2 40.2024 1259.69 42.8752L1255.09 51.0066L1252.23 56.0548L1248.65 62.3929C1248.53 62.5956 1248.38 62.7771 1248.18 62.9078C1247.46 63.3868 1246.44 63.3868 1245.72 62.9078C1245.53 62.7787 1245.37 62.5956 1245.26 62.3929L1241.67 56.0548L1238.81 51.0066L1234.21 42.8752C1232.7 40.2024 1228.39 40.2024 1226.88 42.8752L1222.28 51.0066L1219.42 56.0548L1215.83 62.3929C1215.72 62.5956 1215.57 62.7771 1215.37 62.9078C1214.65 63.3868 1213.63 63.3868 1212.91 62.9078C1212.71 62.7787 1212.56 62.5956 1212.44 62.3929L1208.86 56.0548L1206 51.0066L1201.4 42.8752C1199.89 40.2024 1195.57 40.2024 1194.06 42.8752L1189.46 51.0066L1186.6 56.0548L1183.02 62.3929C1182.9 62.5956 1182.75 62.7771 1182.56 62.9078C1181.83 63.3868 1180.81 63.3868 1180.09 62.9078C1179.9 62.7787 1179.74 62.5956 1179.63 62.3929L1176.04 56.0548L1173.19 51.0066L1168.58 42.8752C1167.07 40.2024 1162.76 40.2024 1161.25 42.8752L1156.65 51.0066L1153.79 56.0548L1150.21 62.3929C1150.09 62.5956 1149.94 62.7771 1149.74 62.9078C1149.02 63.3868 1148 63.3868 1147.28 62.9078C1147.08 62.7787 1146.93 62.5956 1146.81 62.3929L1143.23 56.0548L1140.37 51.0066L1135.77 42.8752C1134.26 40.2024 1129.94 40.2024 1128.43 42.8752L1123.83 51.0066L1120.98 56.0548L1117.39 62.3929C1117.27 62.5956 1117.12 62.7771 1116.93 62.9078C1116.2 63.3868 1115.18 63.3868 1114.46 62.9078C1114.27 62.7787 1114.11 62.5956 1114 62.3929L1110.41 56.0548L1107.56 51.0066L1102.96 42.8752C1101.44 40.2024 1097.13 40.2024 1095.62 42.8752L1091.02 51.0066L1088.16 56.0548L1084.58 62.3929C1084.46 62.5956 1084.31 62.777 1084.11 62.9078C1083.39 63.3868 1082.37 63.3868 1081.65 62.9078C1081.45 62.7787 1081.3 62.5956 1081.18 62.3929L1077.6 56.0548L1074.74 51.0066L1070.14 42.8752C1068.63 40.2023 1064.32 40.2023 1062.8 42.8752L1058.2 51.0066L1055.35 56.0548L1051.76 62.3929C1051.65 62.5956 1051.49 62.777 1051.3 62.9078C1050.58 63.3868 1049.56 63.3868 1048.83 62.9078C1048.64 62.7787 1048.49 62.5956 1048.37 62.3929L1044.78 56.0548L1041.93 51.0066L1037.33 42.8752C1035.82 40.2023 1031.5 40.2023 1029.99 42.8752L1025.39 51.0066L1022.53 56.0548L1018.95 62.3929C1018.83 62.5956 1018.68 62.777 1018.48 62.9078C1017.76 63.3868 1016.74 63.3868 1016.02 62.9078C1015.82 62.7787 1015.67 62.5956 1015.55 62.3929L1011.97 56.0548L1009.11 51.0066L1004.51 42.8752C1003 40.2023 998.686 40.2023 997.175 42.8752L992.574 51.0066L989.718 56.0548L986.133 62.3929C986.016 62.5956 985.864 62.777 985.668 62.9078C984.946 63.3868 983.926 63.3868 983.204 62.9078C983.009 62.7787 982.856 62.5956 982.74 62.3929L979.155 56.0548L976.298 51.0066L971.698 42.8752C970.187 40.2023 965.871 40.2023 964.36 42.8752L959.76 51.0066L956.903 56.0548L953.318 62.3929C953.202 62.5956 953.049 62.777 952.854 62.9078C952.132 63.3868 951.111 63.3868 950.39 62.9078C950.194 62.7787 950.042 62.5956 949.925 62.3929L946.34 56.0548L943.484 51.0066L938.883 42.8752C937.372 40.2023 933.057 40.2023 931.546 42.8752L926.945 51.0066L924.089 56.0548L920.504 62.3929C920.387 62.5956 920.235 62.777 920.039 62.9078C919.317 63.3868 918.297 63.3868 917.575 62.9078C917.38 62.7787 917.227 62.5956 917.111 62.3929L913.526 56.0548L910.669 51.0066L906.068 42.8752C904.557 40.2023 900.242 40.2023 898.731 42.8752L894.131 51.0066L891.274 56.0548L887.689 62.3929C887.573 62.5956 887.42 62.777 887.225 62.9078C886.503 63.3868 885.482 63.3868 884.76 62.9078C884.565 62.7787 884.413 62.5956 884.296 62.3929L880.711 56.0548L877.855 51.0066L873.254 42.8752C871.743 40.2023 867.428 40.2023 865.917 42.8752L861.316 51.0066L858.46 56.0548L854.875 62.3929C854.758 62.5956 854.605 62.777 854.41 62.9078C853.688 63.3868 852.668 63.3868 851.946 62.9078C851.747 62.777 851.591 62.5907 851.475 62.383L845.04 51.005L840.439 42.8736C838.928 40.2007 834.613 40.2007 833.102 42.8736L820.364 65.391L853.178 65.391Z" fill="#EC8522"/>
<path d="M1378.21 167.564L1378.21 142.225C1378.21 140.419 1379.68 138.956 1381.5 138.956L1383.14 138.956C1384.95 138.956 1386.42 140.419 1386.42 142.225L1386.42 163.477C1386.42 165.733 1387.34 167.777 1388.82 169.256C1390.3 170.724 1392.33 171.637 1394.57 171.651C1399.11 171.681 1402.83 167.859 1402.83 163.332L1402.83 142.225C1402.83 140.419 1404.29 138.956 1406.11 138.956L1407.75 138.956C1409.56 138.956 1411.03 140.419 1411.03 142.225L1411.03 167.564C1411.03 174.336 1405.52 179.825 1398.72 179.825L1390.52 179.825C1383.72 179.825 1378.21 174.336 1378.21 167.564Z" fill="#99261D"/>
<path d="M1312.59 167.564L1312.59 142.225C1312.59 140.419 1314.05 138.956 1315.87 138.956L1317.51 138.956C1319.32 138.956 1320.79 140.419 1320.79 142.225L1320.79 163.477C1320.79 165.733 1321.71 167.777 1323.19 169.256C1324.67 170.724 1326.7 171.637 1328.94 171.651C1333.48 171.681 1337.2 167.859 1337.2 163.332L1337.2 142.225C1337.2 140.419 1338.67 138.956 1340.48 138.956L1342.12 138.956C1343.93 138.956 1345.4 140.419 1345.4 142.225L1345.4 167.564C1345.4 174.336 1339.89 179.825 1333.09 179.825L1324.89 179.825C1318.1 179.825 1312.59 174.336 1312.59 167.564Z" fill="#99261D"/>
<path d="M1246.96 167.564L1246.96 142.225C1246.96 140.419 1248.43 138.956 1250.24 138.956L1251.88 138.956C1253.69 138.956 1255.16 140.419 1255.16 142.225L1255.16 163.477C1255.16 165.733 1256.08 167.777 1257.56 169.256C1259.04 170.724 1261.07 171.637 1263.31 171.651C1267.85 171.681 1271.57 167.859 1271.57 163.332L1271.57 142.225C1271.57 140.419 1273.04 138.956 1274.85 138.956L1276.49 138.956C1278.3 138.956 1279.77 140.419 1279.77 142.225L1279.77 167.564C1279.77 174.336 1274.26 179.825 1267.47 179.825L1259.26 179.825C1252.47 179.825 1246.96 174.336 1246.96 167.564Z" fill="#99261D"/>
<path d="M1181.33 167.564L1181.33 142.225C1181.33 140.419 1182.8 138.956 1184.61 138.956L1186.25 138.956C1188.06 138.956 1189.53 140.419 1189.53 142.225L1189.53 163.477C1189.53 165.733 1190.45 167.777 1191.93 169.256C1193.42 170.736 1195.44 171.637 1197.68 171.651C1202.22 171.681 1205.94 167.859 1205.94 163.332L1205.94 142.225C1205.94 140.419 1207.41 138.956 1209.22 138.956L1210.86 138.956C1212.67 138.956 1214.14 140.419 1214.14 142.225L1214.14 167.564C1214.14 174.336 1208.63 179.825 1201.84 179.825L1193.63 179.825C1186.84 179.825 1181.33 174.336 1181.33 167.564Z" fill="#99261D"/>
<path d="M1115.7 167.564L1115.7 142.225C1115.7 140.419 1117.17 138.956 1118.98 138.956L1120.62 138.956C1122.43 138.956 1123.9 140.419 1123.9 142.225L1123.9 163.477C1123.9 165.733 1124.82 167.777 1126.3 169.256C1127.79 170.736 1129.81 171.637 1132.05 171.651C1136.59 171.681 1140.31 167.859 1140.31 163.332L1140.31 142.225C1140.31 140.419 1141.78 138.956 1143.59 138.956L1145.23 138.956C1147.04 138.956 1148.51 140.419 1148.51 142.225L1148.51 167.564C1148.51 174.336 1143 179.825 1136.21 179.825L1128 179.825C1121.21 179.825 1115.7 174.336 1115.7 167.564Z" fill="#99261D"/>
<path d="M1050.07 167.564L1050.07 142.225C1050.07 140.419 1051.54 138.956 1053.35 138.956L1054.99 138.956C1056.8 138.956 1058.27 140.419 1058.27 142.225L1058.27 163.477C1058.27 165.733 1059.19 167.777 1060.68 169.256C1062.16 170.736 1064.18 171.637 1066.42 171.651C1070.96 171.681 1074.68 167.859 1074.68 163.332L1074.68 142.225C1074.68 140.419 1076.15 138.956 1077.96 138.956L1079.6 138.956C1081.41 138.956 1082.88 140.419 1082.88 142.225L1082.88 167.564C1082.88 174.336 1077.37 179.825 1070.58 179.825L1062.37 179.825C1055.58 179.825 1050.07 174.336 1050.07 167.564Z" fill="#99261D"/>
<path d="M984.439 167.564L984.439 142.225C984.439 140.419 985.908 138.956 987.721 138.956L989.362 138.956C991.175 138.956 992.643 140.419 992.643 142.225L992.643 163.477C992.643 165.733 993.562 167.777 995.047 169.256C996.532 170.736 998.55 171.637 1000.79 171.651C1005.33 171.681 1009.05 167.859 1009.05 163.332L1009.05 142.225C1009.05 140.419 1010.52 138.956 1012.33 138.956L1013.97 138.956C1015.79 138.956 1017.25 140.419 1017.25 142.225L1017.25 167.564C1017.25 174.336 1011.74 179.825 1004.95 179.825L996.745 179.825C989.949 179.825 984.439 174.336 984.439 167.564Z" fill="#99261D"/>
<path d="M918.811 167.564L918.811 142.225C918.811 140.419 920.279 138.956 922.092 138.956L923.733 138.956C925.546 138.956 927.015 140.419 927.015 142.225L927.015 163.477C927.015 165.733 927.933 167.777 929.418 169.256C930.903 170.736 932.921 171.637 935.164 171.651C939.706 171.681 943.422 167.859 943.422 163.332L943.422 142.225C943.422 140.419 944.89 138.956 946.703 138.956L948.344 138.956C950.157 138.956 951.625 140.419 951.625 142.225L951.625 167.564C951.625 174.336 946.116 179.825 939.32 179.825L931.116 179.825C924.321 179.825 918.811 174.336 918.811 167.564Z" fill="#99261D"/>
<path d="M853.182 167.564L853.182 142.225C853.182 140.419 854.65 138.956 856.463 138.956L858.104 138.956C859.917 138.956 861.385 140.419 861.385 142.225L861.385 163.477C861.385 165.733 862.304 167.777 863.789 169.256C865.274 170.736 867.292 171.637 869.535 171.651C874.076 171.681 877.792 167.859 877.792 163.332L877.792 142.225C877.792 140.419 879.261 138.956 881.074 138.956L882.715 138.956C884.528 138.956 885.996 140.419 885.996 142.225L885.996 167.564C885.996 174.336 880.487 179.825 873.691 179.825L865.487 179.825C858.691 179.825 853.182 174.336 853.182 167.564Z" fill="#99261D"/>
<path d="M1426.23 138.956L1428.65 138.956C1430.45 138.956 1431.95 140.229 1432.13 141.9L1435.62 174.434C1435.92 177.321 1433.5 179.827 1430.39 179.827L1424.49 179.827C1421.38 179.827 1418.95 177.323 1419.26 174.434L1422.75 141.9C1422.93 140.229 1424.43 138.956 1426.23 138.956L1426.23 138.956Z" fill="#BF1D1D"/>
<path d="M1294.97 138.956L1297.39 138.956C1299.19 138.956 1300.69 140.229 1300.87 141.9L1304.36 174.434C1304.67 177.321 1302.24 179.827 1299.13 179.827L1293.23 179.827C1290.12 179.827 1287.69 177.323 1288 174.434L1291.49 141.9C1291.67 140.229 1293.17 138.956 1294.97 138.956L1294.97 138.956Z" fill="#BF1D1D"/>
<path d="M1360.6 179.825L1363.02 179.825C1364.82 179.825 1366.32 178.552 1366.5 176.881L1369.99 144.347C1370.29 141.46 1367.87 138.954 1364.76 138.954L1358.86 138.954C1355.75 138.954 1353.32 141.459 1353.63 144.347L1357.12 176.881C1357.3 178.552 1358.8 179.825 1360.6 179.825L1360.6 179.825Z" fill="#BF1D1D"/>
<path d="M1163.71 138.956L1166.13 138.956C1167.93 138.956 1169.43 140.229 1169.61 141.9L1173.1 174.434C1173.41 177.321 1170.98 179.827 1167.87 179.827L1161.97 179.827C1158.86 179.827 1156.44 177.323 1156.74 174.434L1160.23 141.9C1160.41 140.229 1161.91 138.956 1163.71 138.956L1163.71 138.956Z" fill="#BF1D1D"/>
<path d="M1229.34 179.825L1231.76 179.825C1233.56 179.825 1235.06 178.552 1235.24 176.881L1238.73 144.347C1239.04 141.46 1236.61 138.954 1233.5 138.954L1227.6 138.954C1224.49 138.954 1222.06 141.459 1222.37 144.347L1225.86 176.881C1226.04 178.552 1227.54 179.825 1229.34 179.825L1229.34 179.825Z" fill="#BF1D1D"/>
<path d="M1032.45 138.956L1034.87 138.956C1036.67 138.956 1038.18 140.229 1038.36 141.9L1041.84 174.434C1042.15 177.321 1039.72 179.827 1036.61 179.827L1030.71 179.827C1027.61 179.827 1025.18 177.323 1025.49 174.434L1028.97 141.9C1029.15 140.229 1030.66 138.956 1032.46 138.956L1032.45 138.956Z" fill="#BF1D1D"/>
<path d="M1098.08 179.825L1100.5 179.825C1102.3 179.825 1103.81 178.552 1103.99 176.881L1107.47 144.347C1107.78 141.46 1105.35 138.954 1102.24 138.954L1096.34 138.954C1093.24 138.954 1090.81 141.459 1091.12 144.347L1094.6 176.881C1094.78 178.552 1096.29 179.825 1098.09 179.825L1098.08 179.825Z" fill="#BF1D1D"/>
<path d="M901.196 138.956L903.613 138.956C905.413 138.956 906.919 140.229 907.098 141.9L910.583 174.434C910.891 177.321 908.463 179.827 905.356 179.827L899.455 179.827C896.348 179.827 893.92 177.323 894.228 174.434L897.713 141.9C897.892 140.229 899.398 138.956 901.198 138.956L901.196 138.956Z" fill="#BF1D1D"/>
<path d="M966.825 179.825L969.242 179.825C971.041 179.825 972.548 178.552 972.726 176.881L976.211 144.347C976.52 141.46 974.092 138.954 970.984 138.954L965.084 138.954C961.976 138.954 959.548 141.459 959.857 144.347L963.341 176.881C963.52 178.552 965.026 179.825 966.826 179.825L966.825 179.825Z" fill="#BF1D1D"/>
<path d="M835.567 179.825L837.984 179.825C839.784 179.825 841.29 178.552 841.469 176.881L844.954 144.347C845.262 141.46 842.834 138.954 839.726 138.954L833.826 138.954C830.719 138.954 828.29 141.459 828.599 144.347L832.084 176.881C832.263 178.552 833.769 179.825 835.569 179.825L835.567 179.825Z" fill="#BF1D1D"/>
<path d="M1443.84 81.7391C1439.31 81.7391 1435.64 86.3135 1435.64 91.9564C1435.64 97.5993 1439.31 102.174 1443.84 102.174C1448.37 102.174 1452.04 97.5993 1452.04 91.9564C1452.04 86.3135 1448.37 81.7391 1443.84 81.7391Z" fill="#EC8522"/>
<path d="M1411.02 81.7391C1406.49 81.7391 1402.82 86.3135 1402.82 91.9564C1402.82 97.5993 1406.49 102.174 1411.02 102.174C1415.56 102.174 1419.23 97.5993 1419.23 91.9564C1419.23 86.3135 1415.56 81.7391 1411.02 81.7391Z" fill="#BF1D1D"/>
<path d="M1378.21 81.7391C1373.68 81.7391 1370.01 86.3135 1370.01 91.9564C1370.01 97.5993 1373.68 102.174 1378.21 102.174C1382.74 102.174 1386.41 97.5993 1386.41 91.9564C1386.41 86.3135 1382.74 81.7391 1378.21 81.7391Z" fill="#EC8522"/>
<path d="M1345.4 81.7391C1340.86 81.7391 1337.19 86.3135 1337.19 91.9564C1337.19 97.5993 1340.86 102.174 1345.4 102.174C1349.93 102.174 1353.6 97.5993 1353.6 91.9564C1353.6 86.3135 1349.93 81.7391 1345.4 81.7391Z" fill="#BF1D1D"/>
<path d="M1312.58 81.7391C1308.05 81.7391 1304.38 86.3135 1304.38 91.9564C1304.38 97.5993 1308.05 102.174 1312.58 102.174C1317.11 102.174 1320.79 97.5993 1320.79 91.9564C1320.79 86.3135 1317.11 81.7391 1312.58 81.7391Z" fill="#EC8522"/>
<path d="M1279.77 81.7391C1275.24 81.7391 1271.56 86.3135 1271.56 91.9564C1271.56 97.5993 1275.24 102.174 1279.77 102.174C1284.3 102.174 1287.97 97.5993 1287.97 91.9564C1287.97 86.3135 1284.3 81.7391 1279.77 81.7391Z" fill="#BF1D1D"/>
<path d="M1246.95 81.7391C1242.42 81.7391 1238.75 86.3135 1238.75 91.9564C1238.75 97.5993 1242.42 102.174 1246.95 102.174C1251.48 102.174 1255.16 97.5993 1255.16 91.9564C1255.16 86.3135 1251.48 81.7391 1246.95 81.7391Z" fill="#EC8522"/>
<path d="M1214.14 81.7391C1209.61 81.7391 1205.93 86.3135 1205.93 91.9564C1205.93 97.5993 1209.61 102.174 1214.14 102.174C1218.67 102.174 1222.34 97.5993 1222.34 91.9564C1222.34 86.3135 1218.67 81.7391 1214.14 81.7391Z" fill="#BF1D1D"/>
<path d="M1181.32 81.7391C1176.79 81.7391 1173.12 86.3135 1173.12 91.9564C1173.12 97.5993 1176.79 102.174 1181.32 102.174C1185.85 102.174 1189.53 97.5993 1189.53 91.9564C1189.53 86.3135 1185.85 81.7391 1181.32 81.7391Z" fill="#EC8522"/>
<path d="M1148.51 81.7391C1143.98 81.7391 1140.3 86.3135 1140.3 91.9564C1140.3 97.5993 1143.98 102.174 1148.51 102.174C1153.04 102.174 1156.71 97.5993 1156.71 91.9564C1156.71 86.3135 1153.04 81.7391 1148.51 81.7391Z" fill="#BF1D1D"/>
<path d="M1115.69 81.7391C1111.16 81.7391 1107.49 86.3135 1107.49 91.9564C1107.49 97.5993 1111.16 102.174 1115.69 102.174C1120.22 102.174 1123.9 97.5993 1123.9 91.9564C1123.9 86.3135 1120.22 81.7391 1115.69 81.7391Z" fill="#EC8522"/>
<path d="M1082.88 81.7391C1078.35 81.7391 1074.68 86.3135 1074.68 91.9564C1074.68 97.5993 1078.35 102.174 1082.88 102.174C1087.41 102.174 1091.08 97.5993 1091.08 91.9564C1091.08 86.3135 1087.41 81.7391 1082.88 81.7391Z" fill="#BF1D1D"/>
<path d="M1050.07 81.7391C1045.53 81.7391 1041.86 86.3135 1041.86 91.9564C1041.86 97.5993 1045.53 102.174 1050.07 102.174C1054.6 102.174 1058.27 97.5993 1058.27 91.9564C1058.27 86.3135 1054.6 81.7391 1050.07 81.7391Z" fill="#EC8522"/>
<path d="M1017.25 81.7391C1012.72 81.7391 1009.05 86.3135 1009.05 91.9564C1009.05 97.5993 1012.72 102.174 1017.25 102.174C1021.78 102.174 1025.45 97.5993 1025.45 91.9564C1025.45 86.3135 1021.78 81.7391 1017.25 81.7391Z" fill="#BF1D1D"/>
<path d="M984.436 81.7391C979.905 81.7391 976.232 86.3135 976.232 91.9564C976.232 97.5993 979.905 102.174 984.436 102.174C988.967 102.174 992.64 97.5993 992.64 91.9564C992.64 86.3135 988.967 81.7391 984.436 81.7391Z" fill="#EC8522"/>
<path d="M951.621 81.7391C947.09 81.7391 943.417 86.3135 943.417 91.9564C943.417 97.5993 947.09 102.174 951.621 102.174C956.152 102.174 959.825 97.5993 959.825 91.9564C959.825 86.3135 956.152 81.7391 951.621 81.7391Z" fill="#BF1D1D"/>
<path d="M918.806 81.7391C914.275 81.7391 910.602 86.3135 910.602 91.9564C910.602 97.5993 914.275 102.174 918.806 102.174C923.337 102.174 927.01 97.5993 927.01 91.9564C927.01 86.3135 923.337 81.7391 918.806 81.7391Z" fill="#EC8522"/>
<path d="M885.992 81.7391C881.461 81.7391 877.789 86.3135 877.789 91.9564C877.789 97.5993 881.461 102.174 885.992 102.174C890.523 102.174 894.196 97.5993 894.196 91.9564C894.196 86.3135 890.523 81.7391 885.992 81.7391Z" fill="#BF1D1D"/>
<path d="M853.178 81.7391C848.647 81.7391 844.974 86.3135 844.974 91.9564C844.974 97.5993 848.647 102.174 853.178 102.174C857.708 102.174 861.381 97.5993 861.381 91.9564C861.381 86.3135 857.708 81.7391 853.178 81.7391Z" fill="#EC8522"/>
<path d="M820.364 73.5654L1640.73 73.5654L1640.73 65.3915L820.364 65.3914L820.364 73.5654Z" fill="#EC8522"/>
</g>
</g>
</g>
<defs>
<clipPath id="clip0_571_81332">
<rect width="1440" height="188" fill="white"/>
</clipPath>
<clipPath id="clip1_571_81332">
<rect width="2461.09" height="188" fill="white"/>
</clipPath>
<clipPath id="clip2_571_81332">
<rect width="820.364" height="188" fill="white" transform="translate(820.363 188) rotate(-180)"/>
</clipPath>
<clipPath id="clip3_571_81332">
<rect width="820.364" height="188" fill="white" transform="translate(1640.73 188) rotate(-180)"/>
</clipPath>
</defs>
</svg>
