<svg width="1440" height="943" viewBox="0 0 1440 943" fill="none" xmlns="http://www.w3.org/2000/svg">
<rect width="1440" height="942.54" fill="#081F3F"/>
<rect width="1440" height="942.54" fill="url(#paint0_linear_748_80020)"/>
<g style="mix-blend-mode:overlay" opacity="0.74">
<path fill-rule="evenodd" clip-rule="evenodd" d="M1420.88 849.004H2.93032L2 418.793C3.7012 418.926 5.44716 419.06 7.22763 419.195C8.27806 419.275 9.34051 419.356 10.4129 419.439C10.4094 419.315 10.4049 419.192 10.4003 419.068C10.3912 418.821 10.382 418.575 10.382 418.328C10.2895 377.115 41.452 344.751 79.9888 346.042C107.418 346.952 131.176 364.69 142.633 389.699C153.977 365.452 177.662 349.312 205.092 350.233C237.848 351.323 265.36 376.395 272.94 409.194C283.296 382.322 308.247 363.981 337.435 364.955C365.852 365.907 390.329 384.905 401.262 411.342C413.017 388.44 436.034 373.4 462.548 374.289C494.276 375.358 521.078 398.907 529.625 430.181C539.457 402.177 564.942 382.862 594.881 383.867C628.553 384.989 656.702 411.438 663.336 445.591C672.315 415.883 698.571 395.054 729.631 396.091C760.866 397.139 787.349 419.979 796.307 450.544C805.851 421.937 831.614 402.082 861.954 403.098C892.962 404.135 919.27 426.657 928.424 456.884C939.336 431.398 963.618 414.221 991.891 415.163C1019.93 416.094 1044.13 434.605 1055.28 460.493C1067.51 439.601 1089.49 426.149 1114.61 426.985C1143.53 427.959 1168.37 447.591 1179.01 474.749C1190.08 449.697 1214.15 432.891 1242.13 433.833C1274.77 434.923 1302.23 459.826 1309.91 492.476C1321.37 468.578 1344.87 452.714 1372.07 453.624C1401.48 454.609 1426.67 474.906 1437 502.783V558.345C1433.24 568.222 1427.5 576.956 1420.31 584.014L1420.88 849.004ZM121.056 422C121.004 397.848 102.646 377.655 80.0607 376.893C57.4756 376.131 39.21 395.107 39.2614 419.259C39.2614 420.063 39.282 420.857 39.3231 421.64C54.322 422.803 70.9779 424.089 89.1106 425.489C99.1895 426.267 109.725 427.08 120.685 427.927C120.922 425.99 121.056 424.011 121.056 422ZM244.78 437.526C245.685 433.931 246.158 430.145 246.158 426.212C246.107 402.05 227.749 381.857 205.164 381.095C182.579 380.343 164.313 399.319 164.364 423.471C164.364 426.159 164.611 428.795 165.053 431.367C183.895 432.818 203.676 434.348 224.292 435.942C231.034 436.463 237.864 436.992 244.78 437.526ZM378.008 447.835C378.337 445.591 378.502 443.284 378.502 440.934H378.512C378.461 416.772 360.102 396.578 337.517 395.816C314.932 395.065 296.666 414.031 296.718 438.193C296.718 439.325 296.769 440.447 296.852 441.559L306.197 442.281C329.449 444.078 353.433 445.932 378.008 447.835ZM503.06 457.519C503.42 455.169 503.615 452.745 503.615 450.269V450.258C503.564 426.096 485.205 405.902 462.62 405.14C440.035 404.389 421.769 423.355 421.821 447.517C421.821 448.777 421.883 450.004 421.985 451.232C433.469 452.122 445.061 453.021 456.747 453.928C472.033 455.114 487.48 456.313 503.06 457.519ZM635.279 467.774C635.711 465.213 635.948 462.567 635.948 459.847C635.896 435.685 617.538 415.481 594.953 414.729C572.368 413.978 554.102 432.944 554.154 457.106C554.164 458.588 554.236 460.048 554.37 461.498C581.089 463.572 608.107 465.668 635.279 467.774ZM770.286 478.273C770.553 476.255 770.687 474.194 770.688 472.092C770.636 447.93 752.278 427.726 729.693 426.974C707.108 426.212 688.842 445.189 688.893 469.34C688.893 470.219 688.924 471.087 688.976 471.955C708.281 473.449 727.618 474.953 746.946 476.457C754.728 477.063 762.51 477.668 770.286 478.273ZM902.054 488.539C902.681 485.512 903.01 482.348 903.01 479.088C902.959 454.936 884.601 434.743 862.016 433.981C839.43 433.219 821.154 452.195 821.206 476.347C821.216 478.358 821.36 480.326 821.607 482.274C846.173 484.18 870.62 486.087 894.863 487.978L902.054 488.539ZM1032.94 491.164C1032.89 467.001 1014.54 446.808 991.942 446.046C969.357 445.295 951.091 464.26 951.143 488.423C951.143 489.756 951.215 491.079 951.328 492.391C975.128 494.246 998.642 496.086 1021.77 497.895L1032.33 498.72C1032.73 496.276 1032.94 493.746 1032.94 491.164ZM1155.35 508.373C1155.54 506.608 1155.65 504.824 1155.65 503.007C1155.6 478.845 1137.24 458.651 1114.66 457.889C1092.07 457.127 1073.81 476.103 1073.86 500.255C1073.86 500.837 1073.88 501.409 1073.9 501.98C1083.25 502.714 1092.52 503.441 1101.71 504.161C1119.95 505.59 1137.84 506.993 1155.35 508.373ZM1282.39 518.395C1282.91 515.644 1283.16 512.775 1283.16 509.844H1283.17C1283.11 485.681 1264.76 465.477 1242.18 464.726C1219.58 463.975 1201.32 482.94 1201.37 507.103C1201.37 508.764 1201.47 510.394 1201.64 512.013C1210.78 512.736 1219.8 513.448 1228.67 514.148C1247.22 515.612 1265.16 517.028 1282.39 518.395ZM1331.53 522.301C1361.77 524.703 1389.15 526.894 1413.09 528.831H1413.1C1412.65 505.039 1394.46 485.279 1372.13 484.528C1350.99 483.819 1333.64 500.382 1331.53 522.301Z" fill="#E870C6"/>
</g>
<path d="M1433.08 903.76L10.5697 910.2L10.2969 890.6L1433.03 899.96L1433.08 903.76Z" fill="#793041"/>
<path d="M1433.63 942.54L10.8435 929.48L10.7559 923.05L1433.42 928.02L1433.63 942.54Z" fill="#C1A0A8"/>
<path d="M996.14 768.915L975.468 769.219L976.196 821.453L996.868 821.15L996.14 768.915Z" fill="#793041"/>
<path d="M931.02 774.714L921.482 774.856L922.128 820.561L931.665 820.419L931.02 774.714Z" fill="#EC8522"/>
<path d="M70.2461 781.372L60.709 781.514L61.3541 827.219L70.8913 827.077L70.2461 781.372Z" fill="#EC8522"/>
<path d="M865.762 769.105L840.316 769.483L841.031 820.078L866.476 819.7L865.762 769.105Z" fill="#793041"/>
<path d="M768.834 777.065L752.936 777.302L753.65 827.896L769.548 827.66L768.834 777.065Z" fill="#EC8522"/>
<path d="M440.34 772.66L424.441 772.896L425.156 823.501L441.054 823.264L440.34 772.66Z" fill="#EC8522"/>
<path d="M41.4747 778.575L25.5762 778.811L26.2743 829.406L42.1728 829.17L41.4747 778.575Z" fill="#EC8522"/>
<path d="M713.081 773.073L705.132 773.189L705.837 823.784L713.787 823.667L713.081 773.073Z" fill="#EC8522"/>
<path d="M669.294 769.636L648.622 769.939L649.419 827.064L670.091 826.76L669.294 769.636Z" fill="#EC8522"/>
<path d="M1399.93 765.004L1379.26 765.308L1379.99 817.543L1400.66 817.239L1399.93 765.004Z" fill="#EC8522"/>
<path d="M1334.79 770.832L1325.25 770.972L1325.89 816.677L1335.43 816.537L1334.79 770.832Z" fill="#EC8522"/>
<path d="M1269.49 765.321L1244.05 765.694L1244.75 816.289L1270.2 815.915L1269.49 765.321Z" fill="#EC8522"/>
<path d="M1172.58 773.233L1156.69 773.467L1157.39 824.062L1173.29 823.828L1172.58 773.233Z" fill="#FE8C37"/>
<path d="M1116.86 769.172L1108.91 769.289L1109.62 819.884L1117.57 819.767L1116.86 769.172Z" fill="#EC8522"/>
<path d="M1073.07 765.722L1052.4 766.029L1053.19 823.153L1073.86 822.846L1073.07 765.722Z" fill="#EC8522"/>
<path d="M1043.1 772.766L1033.56 772.906L1034.2 818.612L1043.74 818.471L1043.1 772.766Z" fill="#BC6124"/>
<path d="M1289.3 772.658L1279.76 772.799L1280.41 818.505L1289.95 818.363L1289.3 772.658Z" fill="#BC6124"/>
<path d="M579.915 771.129L559.243 771.433L559.972 823.667L580.644 823.364L579.915 771.129Z" fill="#793041"/>
<path d="M115.397 777.95L94.7246 778.256L95.4478 830.491L116.12 830.185L115.397 777.95Z" fill="#793041"/>
<path d="M516.328 777.233L506.791 777.374L507.428 823.079L516.966 822.939L516.328 777.233Z" fill="#BC6124"/>
<path d="M174.606 776.533L165.059 776.673L165.696 822.378L175.243 822.238L174.606 776.533Z" fill="#BC6124"/>
<path d="M485.676 772.763L460.23 773.137L460.936 823.732L486.381 823.358L485.676 772.763Z" fill="#EC8522"/>
<path d="M352.507 773.499L336.608 773.733L337.314 824.328L353.212 824.094L352.507 773.499Z" fill="#EC8522"/>
<path d="M296.858 775.202L288.909 775.32L289.623 825.915L297.573 825.797L296.858 775.202Z" fill="#793041"/>
<path d="M253.02 765.965L232.348 766.272L233.154 823.396L253.826 823.089L253.02 765.965Z" fill="#EC8522"/>
<path d="M1432.62 870.91C1045.41 874.46 183.008 878.82 10.1524 879.75L9.36328 823.44L1431.82 813.12L1432.62 870.91Z" fill="#EC8522"/>
<path d="M1341.64 832.17C1341.69 836.57 1345.22 840.09 1349.52 840.03C1353.81 839.97 1357.23 836.35 1357.18 831.94C1357.12 827.54 1353.59 824.02 1349.29 824.08C1345.01 824.14 1341.58 827.76 1341.64 832.17Z" fill="#793041"/>
<path d="M1424.46 829.35C1424.52 833.75 1428.05 837.27 1432.34 837.21C1436.63 837.15 1440.06 833.53 1440 829.12C1439.94 824.72 1436.41 821.2 1432.12 821.26C1427.83 821.32 1424.4 824.94 1424.46 829.34V829.35Z" fill="#793041"/>
<path d="M1254.14 833.99C1254.19 838.39 1257.72 841.91 1262.02 841.85C1266.31 841.79 1269.73 838.17 1269.68 833.76C1269.62 829.36 1266.09 825.84 1261.79 825.9C1257.51 825.96 1254.08 829.58 1254.14 833.99Z" fill="#793041"/>
<path d="M1168.72 837.37C1168.78 841.77 1172.31 845.29 1176.6 845.23C1180.89 845.17 1184.32 841.55 1184.26 837.14C1184.2 832.74 1180.68 829.22 1176.38 829.28C1172.09 829.34 1168.66 832.96 1168.72 837.37Z" fill="#793041"/>
<path d="M1082.23 836.52C1082.28 840.92 1085.81 844.44 1090.11 844.38C1094.39 844.32 1097.82 840.7 1097.77 836.29C1097.71 831.89 1094.18 828.37 1089.88 828.43C1085.6 828.49 1082.17 832.11 1082.23 836.52Z" fill="#793041"/>
<path d="M996.236 835.13C996.294 839.53 999.821 843.05 1004.11 842.99C1008.39 842.93 1011.82 839.31 1011.77 834.9C1011.71 830.5 1008.18 826.98 1003.88 827.04C999.597 827.1 996.168 830.72 996.226 835.13H996.236Z" fill="#793041"/>
<path d="M909.418 837.07C909.476 841.47 913.003 844.99 917.3 844.93C921.586 844.87 925.016 841.25 924.957 836.84C924.899 832.44 921.372 828.92 917.076 828.98C912.789 829.04 909.359 832.66 909.418 837.07Z" fill="#793041"/>
<path d="M822.054 841.28C822.113 845.68 825.64 849.2 829.936 849.14C834.223 849.08 837.653 845.46 837.594 841.05C837.536 836.65 834.009 833.13 829.712 833.19C825.425 833.25 821.996 836.87 822.054 841.28Z" fill="#793041"/>
<path d="M732.226 839.68C732.285 844.08 735.812 847.6 740.108 847.54C744.395 847.48 747.824 843.86 747.766 839.45C747.708 835.05 744.181 831.53 739.884 831.59C735.597 831.65 732.168 835.27 732.226 839.68Z" fill="#793041"/>
<path d="M640.548 842.53C640.616 846.93 644.133 850.45 648.429 850.39C652.716 850.33 656.146 846.71 656.087 842.3C656.019 837.9 652.502 834.38 648.205 834.44C643.919 834.5 640.489 838.12 640.548 842.53Z" fill="#793041"/>
<path d="M556.039 842.35C556.097 846.75 559.624 850.27 563.921 850.21C568.208 850.15 571.637 846.53 571.579 842.12C571.51 837.72 567.983 834.2 563.697 834.26C559.41 834.32 555.98 837.94 556.039 842.35Z" fill="#793041"/>
<path d="M473.41 840.67C473.478 845.07 476.995 848.59 481.292 848.53C485.579 848.47 489.008 844.85 488.95 840.44C488.891 836.04 485.364 832.52 481.068 832.58C476.781 832.64 473.351 836.26 473.41 840.67Z" fill="#793041"/>
<path d="M389.895 841.91C389.954 846.31 393.481 849.83 397.777 849.77C402.064 849.71 405.493 846.09 405.435 841.68C405.377 837.28 401.85 833.76 397.553 833.82C393.266 833.88 389.837 837.5 389.895 841.91Z" fill="#793041"/>
<path d="M307.268 840.24C307.326 844.64 310.853 848.16 315.149 848.1C319.436 848.04 322.866 844.42 322.807 840.01C322.749 835.61 319.222 832.09 314.935 832.15C310.648 832.21 307.219 835.83 307.277 840.24H307.268Z" fill="#793041"/>
<path d="M226.567 842.39C226.626 846.79 230.152 850.31 234.449 850.25C238.736 850.19 242.165 846.57 242.107 842.16C242.039 837.76 238.522 834.24 234.225 834.3C229.938 834.36 226.509 837.98 226.567 842.39Z" fill="#793041"/>
<path d="M144.914 842.63C144.972 847.03 148.499 850.55 152.796 850.49C157.083 850.43 160.512 846.81 160.454 842.4C160.395 838 156.868 834.48 152.572 834.54C148.285 834.6 144.855 838.22 144.914 842.63Z" fill="#793041"/>
<path d="M67.0105 843.78C67.069 848.18 70.5958 851.7 74.8924 851.64C79.1792 851.58 82.6087 847.96 82.5502 843.55C82.482 839.15 78.9649 835.63 74.6683 835.69C70.3815 835.75 66.952 839.37 67.0105 843.78Z" fill="#793041"/>
<path d="M1424.8 859.68L1391.16 822.4L1357.36 861.93L1424.8 859.68Z" fill="#BF1D1D"/>
<path d="M1340.17 859.67L1306.52 822.39L1272.73 861.92L1340.17 859.67Z" fill="#BF1D1D"/>
<path d="M1254.33 862.19L1220.69 824.92L1185.67 864.23L1254.33 862.19Z" fill="#BF1D1D"/>
<path d="M1165.76 861.9L1132.12 824.63L1097.6 861.81L1165.76 861.9Z" fill="#BF1D1D"/>
<path d="M1080.32 862.63L1046.67 825.36L1012.16 862.54L1080.32 862.63Z" fill="#BF1D1D"/>
<path d="M994.355 863.37L960.713 826.09L925.143 862.76L994.355 863.37Z" fill="#BF1D1D"/>
<path d="M907.421 864.65L873.779 827.38L838.208 864.04L907.421 864.65Z" fill="#BF1D1D"/>
<path d="M817.622 865L783.98 827.72L748.419 864.39L817.622 865Z" fill="#BF1D1D"/>
<path d="M725.056 866.53L692.428 830.38L657.938 865.94L725.056 866.53Z" fill="#BF1D1D"/>
<path d="M635.774 864.98L604.84 830.71L572.144 864.43L635.774 864.98Z" fill="#BF1D1D"/>
<path d="M554.168 864.04L523.235 829.771L490.538 863.48L554.168 864.04Z" fill="#BF1D1D"/>
<path d="M471.208 865.98L440.275 831.71L407.578 865.42L471.208 865.98Z" fill="#BF1D1D"/>
<path d="M389.565 864.32L358.641 830.05L325.935 863.76L389.565 864.32Z" fill="#BF1D1D"/>
<path d="M304.158 864.62L273.225 830.35L243.091 864.3L304.158 864.62Z" fill="#BF1D1D"/>
<path d="M223.431 864.85L192.498 830.58L162.373 864.53L223.431 864.85Z" fill="#BF1D1D"/>
<path d="M143.676 866.99L112.743 832.72L82.6084 866.67L143.676 866.99Z" fill="#BF1D1D"/>
<path d="M61.0579 866.28L30.1343 832.01L0 865.96L61.0579 866.28Z" fill="#BF1D1D"/>
<defs>
<linearGradient id="paint0_linear_748_80020" x1="720" y1="92.6055" x2="720" y2="942.54" gradientUnits="userSpaceOnUse">
<stop stop-color="#431A24"/>
<stop offset="1" stop-color="#793041" stop-opacity="0"/>
</linearGradient>
</defs>
</svg>
