<svg width="1440" height="166" viewBox="0 0 1440 166" fill="none" xmlns="http://www.w3.org/2000/svg">
<path d="M1433.08 129.499L10.5705 135.51L10.2977 117.217L1433.03 125.953L1433.08 129.499Z" fill="#793041"/>
<path d="M1433.63 165.692L10.8435 153.504L10.7559 147.502L1433.42 152.141L1433.63 165.692Z" fill="#C1A0A8"/>
<path d="M996.14 3.64968L975.468 3.93311L976.196 52.6832L996.868 52.3997L996.14 3.64968Z" fill="#793041"/>
<path d="M931.019 9.06198L921.482 9.19434L922.127 51.8505L931.665 51.7182L931.019 9.06198Z" fill="#EC8522"/>
<path d="M70.246 15.2758L60.7088 15.4082L61.3539 58.0644L70.8911 57.9321L70.246 15.2758Z" fill="#EC8522"/>
<path d="M865.761 3.82705L840.316 4.18018L841.03 51.3997L866.475 51.0466L865.761 3.82705Z" fill="#793041"/>
<path d="M768.834 11.2564L752.936 11.4771L753.65 58.6966L769.548 58.4759L768.834 11.2564Z" fill="#EC8522"/>
<path d="M440.34 7.1446L424.441 7.36523L425.155 54.5941L441.054 54.3734L440.34 7.1446Z" fill="#EC8522"/>
<path d="M41.4745 12.6679L25.576 12.8857L26.282 60.1054L42.1805 59.8875L41.4745 12.6679Z" fill="#EC8522"/>
<path d="M713.081 7.53017L705.132 7.63916L705.837 54.8588L713.786 54.7498L713.081 7.53017Z" fill="#EC8522"/>
<path d="M669.295 4.32253L648.623 4.60596L649.419 57.9194L670.091 57.6359L669.295 4.32253Z" fill="#EC8522"/>
<path d="M1399.93 -0.000221552L1379.26 0.283203L1379.99 49.0333L1400.66 48.7498L1399.93 -0.000221552Z" fill="#EC8522"/>
<path d="M1334.79 5.43809L1325.25 5.56885L1325.89 48.2251L1335.43 48.0944L1334.79 5.43809Z" fill="#EC8522"/>
<path d="M1269.49 0.294683L1244.05 0.643555L1244.75 47.8632L1270.2 47.5143L1269.49 0.294683Z" fill="#EC8522"/>
<path d="M1172.58 7.67997L1156.69 7.89795L1157.39 55.1176L1173.29 54.8996L1172.58 7.67997Z" fill="#FE8C37"/>
<path d="M1116.86 3.88955L1108.91 3.99854L1109.62 51.2182L1117.57 51.1092L1116.86 3.88955Z" fill="#EC8522"/>
<path d="M1073.07 0.672827L1052.4 0.956055L1053.2 54.2694L1073.87 53.9862L1073.07 0.672827Z" fill="#EC8522"/>
<path d="M1043.1 7.24375L1033.56 7.37451L1034.2 50.0308L1043.74 49.9001L1043.1 7.24375Z" fill="#BC6124"/>
<path d="M1289.3 7.14255L1279.77 7.2749L1280.41 49.9311L1289.95 49.7987L1289.3 7.14255Z" fill="#BC6124"/>
<path d="M579.913 5.71609L559.241 5.99951L559.969 54.7496L580.641 54.4661L579.913 5.71609Z" fill="#793041"/>
<path d="M115.395 12.084L94.7234 12.3672L95.4523 61.1173L116.124 60.834L115.395 12.084Z" fill="#793041"/>
<path d="M516.327 11.4132L506.79 11.5439L507.427 54.2002L516.964 54.0695L516.327 11.4132Z" fill="#BC6124"/>
<path d="M174.604 10.7592L165.057 10.8901L165.694 53.5464L175.241 53.4155L174.604 10.7592Z" fill="#BC6124"/>
<path d="M485.676 7.24146L460.23 7.59033L460.936 54.81L486.381 54.4611L485.676 7.24146Z" fill="#EC8522"/>
<path d="M352.505 7.92851L336.607 8.14648L337.312 55.3661L353.211 55.1481L352.505 7.92851Z" fill="#EC8522"/>
<path d="M296.858 9.51761L288.909 9.62793L289.623 56.8474L297.572 56.7371L296.858 9.51761Z" fill="#793041"/>
<path d="M253.018 0.896712L232.346 1.18359L233.152 54.4968L253.824 54.21L253.018 0.896712Z" fill="#EC8522"/>
<path d="M1432.62 98.8406C1045.41 102.154 183.008 106.223 10.1521 107.091L9.36298 54.5373L1431.82 44.9058L1432.62 98.8406Z" fill="#EC8522"/>
<path d="M1341.64 62.6848C1341.7 66.7913 1345.22 70.0765 1349.52 70.0205C1353.81 69.9645 1357.23 66.5859 1357.18 62.4701C1357.12 58.3637 1353.59 55.0785 1349.29 55.1345C1345.01 55.1905 1341.58 58.569 1341.64 62.6848Z" fill="#793041"/>
<path d="M1424.46 60.053C1424.52 64.1594 1428.04 67.4446 1432.34 67.3886C1436.63 67.3326 1440.06 63.9541 1440 59.8383C1439.94 55.7319 1436.41 52.4467 1432.12 52.5027C1427.83 52.5587 1424.4 55.9372 1424.46 60.0437V60.053Z" fill="#793041"/>
<path d="M1254.14 64.3835C1254.19 68.49 1257.72 71.7752 1262.02 71.7192C1266.3 71.6632 1269.73 68.2847 1269.68 64.1689C1269.62 60.0624 1266.09 56.7772 1261.79 56.8332C1257.51 56.8892 1254.08 60.2677 1254.14 64.3835Z" fill="#793041"/>
<path d="M1168.72 67.5383C1168.78 71.6448 1172.31 74.93 1176.6 74.874C1180.89 74.818 1184.32 71.4395 1184.26 67.3237C1184.2 63.2172 1180.68 59.932 1176.38 59.988C1172.09 60.044 1168.66 63.4225 1168.72 67.5383Z" fill="#793041"/>
<path d="M1082.23 66.7449C1082.28 70.8513 1085.81 74.1365 1090.11 74.0805C1094.39 74.0245 1097.82 70.646 1097.77 66.5302C1097.71 62.4237 1094.18 59.1386 1089.88 59.1946C1085.6 59.2506 1082.17 62.6291 1082.23 66.7449Z" fill="#793041"/>
<path d="M996.236 65.4475C996.295 69.554 999.822 72.8392 1004.11 72.7832C1008.4 72.7272 1011.82 69.3487 1011.77 65.2329C1011.71 61.1264 1008.18 57.8412 1003.88 57.8972C999.598 57.9532 996.168 61.3317 996.227 65.4475H996.236Z" fill="#793041"/>
<path d="M909.418 67.2585C909.477 71.365 913.004 74.6502 917.3 74.5942C921.587 74.5382 925.017 71.1597 924.958 67.0439C924.9 62.9374 921.373 59.6522 917.076 59.7082C912.789 59.7642 909.36 63.1427 909.418 67.2585Z" fill="#793041"/>
<path d="M822.054 71.1878C822.113 75.2942 825.64 78.5794 829.936 78.5234C834.223 78.4674 837.652 75.0889 837.594 70.9731C837.535 66.8666 834.009 63.5814 829.712 63.6374C825.425 63.6934 821.996 67.072 822.054 71.1878Z" fill="#793041"/>
<path d="M732.227 69.6941C732.285 73.8006 735.812 77.0857 740.108 77.0297C744.395 76.9737 747.825 73.5952 747.766 69.4794C747.708 65.3729 744.181 62.0878 739.884 62.1438C735.598 62.1998 732.168 65.5783 732.227 69.6941Z" fill="#793041"/>
<path d="M640.547 72.3543C640.615 76.4607 644.132 79.7459 648.428 79.6899C652.715 79.6339 656.145 76.2554 656.086 72.1396C656.018 68.0331 652.501 64.7479 648.204 64.8039C643.917 64.8599 640.488 68.2385 640.547 72.3543Z" fill="#793041"/>
<path d="M556.038 72.1858C556.097 76.2923 559.624 79.5775 563.92 79.5215C568.207 79.4655 571.637 76.087 571.578 71.9711C571.51 67.8647 567.983 64.5795 563.696 64.6355C559.409 64.6915 555.98 68.07 556.038 72.1858Z" fill="#793041"/>
<path d="M473.411 70.6179C473.479 74.7244 476.996 78.0096 481.292 77.9536C485.579 77.8976 489.009 74.5191 488.95 70.4032C488.892 66.2968 485.365 63.0116 481.068 63.0676C476.782 63.1236 473.352 66.5021 473.411 70.6179Z" fill="#793041"/>
<path d="M389.896 71.7751C389.954 75.8816 393.481 79.1668 397.778 79.1108C402.064 79.0548 405.494 75.6763 405.435 71.5605C405.377 67.454 401.85 64.1688 397.553 64.2248C393.267 64.2808 389.837 67.6593 389.896 71.7751Z" fill="#793041"/>
<path d="M307.267 70.2165C307.325 74.323 310.852 77.6082 315.149 77.5522C319.436 77.4962 322.865 74.1177 322.807 70.0019C322.748 65.8954 319.221 62.6102 314.935 62.6662C310.648 62.7222 307.218 66.1007 307.277 70.2165H307.267Z" fill="#793041"/>
<path d="M226.568 72.2234C226.626 76.3299 230.153 79.6151 234.45 79.5591C238.737 79.5031 242.166 76.1245 242.108 72.0087C242.039 67.9022 238.522 64.6171 234.226 64.6731C229.939 64.7291 226.509 68.1076 226.568 72.2234Z" fill="#793041"/>
<path d="M144.914 72.4475C144.972 76.554 148.499 79.8392 152.796 79.7832C157.083 79.7272 160.512 76.3487 160.454 72.2329C160.395 68.1264 156.868 64.8412 152.572 64.8972C148.285 64.9532 144.856 68.3317 144.914 72.4475Z" fill="#793041"/>
<path d="M67.0108 73.5208C67.0693 77.6272 70.5961 80.9124 74.8927 80.8564C79.1795 80.8004 82.609 77.4219 82.5505 73.3061C82.4823 69.1996 78.9652 65.9144 74.6686 65.9704C70.3818 66.0264 66.9524 69.405 67.0108 73.5208Z" fill="#793041"/>
<path d="M1424.8 88.3599L1391.16 53.5669L1357.36 90.4598L1424.8 88.3599Z" fill="#BF1D1D"/>
<path d="M1340.16 88.3507L1306.52 53.5576L1272.73 90.4506L1340.16 88.3507Z" fill="#BF1D1D"/>
<path d="M1254.33 90.7026L1220.69 55.9189L1185.67 92.6066L1254.33 90.7026Z" fill="#BF1D1D"/>
<path d="M1165.76 90.4317L1132.12 55.6479L1097.6 90.3477L1165.76 90.4317Z" fill="#BF1D1D"/>
<path d="M1080.32 91.1133L1046.67 56.3296L1012.16 91.0293L1080.32 91.1133Z" fill="#BF1D1D"/>
<path d="M994.355 91.8038L960.714 57.0107L925.143 91.2345L994.355 91.8038Z" fill="#BF1D1D"/>
<path d="M907.421 92.9986L873.779 58.2148L838.208 92.4293L907.421 92.9986Z" fill="#BF1D1D"/>
<path d="M817.622 93.3253L783.98 58.5322L748.419 92.756L817.622 93.3253Z" fill="#BF1D1D"/>
<path d="M725.055 94.7531L692.427 61.0146L657.938 94.2024L725.055 94.7531Z" fill="#BF1D1D"/>
<path d="M635.773 93.3066L604.84 61.3228L572.143 92.7933L635.773 93.3066Z" fill="#BF1D1D"/>
<path d="M554.168 92.4291L523.234 60.4453L490.538 91.9065L554.168 92.4291Z" fill="#BF1D1D"/>
<path d="M471.208 94.2397L440.275 62.2559L407.578 93.7171L471.208 94.2397Z" fill="#BF1D1D"/>
<path d="M389.564 92.6904L358.641 60.7065L325.934 92.1677L389.564 92.6904Z" fill="#BF1D1D"/>
<path d="M304.16 92.9702L273.226 60.9863L243.092 92.6715L304.16 92.9702Z" fill="#BF1D1D"/>
<path d="M223.431 93.185L192.498 61.2012L162.373 92.8864L223.431 93.185Z" fill="#BF1D1D"/>
<path d="M143.677 95.1821L112.744 63.1982L82.6094 94.8834L143.677 95.1821Z" fill="#BF1D1D"/>
<path d="M61.0578 94.5195L30.1343 62.5356L0 94.2208L61.0578 94.5195Z" fill="#BF1D1D"/>
</svg>
