<svg width="24" height="24" viewBox="0 0 24 24" fill="none" xmlns="http://www.w3.org/2000/svg">
<g id="category icons">
<g id="calendar_month">
<mask id="mask0_734_3813" style="mask-type:alpha" maskUnits="userSpaceOnUse" x="3" y="3" width="18" height="18">
<rect id="Bounding box" x="3.35986" y="3.35986" width="17.28" height="17.28" fill="#D9D9D9"/>
</mask>
<g mask="url(#mask0_734_3813)">
<path id="calendar_month_2" d="M11.7375 13.24C11.5254 13.24 11.3477 13.1661 11.2045 13.0182C11.0608 12.8709 10.9889 12.6882 10.9889 12.47C10.9889 12.2518 11.0608 12.0688 11.2045 11.921C11.3477 11.7737 11.5254 11.7 11.7375 11.7C11.9496 11.7 12.1275 11.7737 12.2713 11.921C12.4145 12.0688 12.4861 12.2518 12.4861 12.47C12.4861 12.6882 12.4145 12.8709 12.2713 13.0182C12.1275 13.1661 11.9496 13.24 11.7375 13.24ZM8.74306 13.24C8.53095 13.24 8.35303 13.1661 8.2093 13.0182C8.06606 12.8709 7.99444 12.6882 7.99444 12.47C7.99444 12.2518 8.06606 12.0688 8.2093 11.921C8.35303 11.7737 8.53095 11.7 8.74306 11.7C8.95516 11.7 9.13308 11.7737 9.27682 11.921C9.42005 12.0688 9.49167 12.2518 9.49167 12.47C9.49167 12.6882 9.42005 12.8709 9.27682 13.0182C9.13308 13.1661 8.95516 13.24 8.74306 13.24ZM14.7319 13.24C14.5198 13.24 14.3422 13.1661 14.1989 13.0182C14.0552 12.8709 13.9833 12.6882 13.9833 12.47C13.9833 12.2518 14.0552 12.0688 14.1989 11.921C14.3422 11.7737 14.5198 11.7 14.7319 11.7C14.9441 11.7 15.1217 11.7737 15.265 11.921C15.4087 12.0688 15.4806 12.2518 15.4806 12.47C15.4806 12.6882 15.4087 12.8709 15.265 13.0182C15.1217 13.1661 14.9441 13.24 14.7319 13.24ZM11.7375 16.32C11.5254 16.32 11.3477 16.2461 11.2045 16.0982C11.0608 15.9509 10.9889 15.7682 10.9889 15.55C10.9889 15.3318 11.0608 15.1491 11.2045 15.0018C11.3477 14.8539 11.5254 14.78 11.7375 14.78C11.9496 14.78 12.1275 14.8539 12.2713 15.0018C12.4145 15.1491 12.4861 15.3318 12.4861 15.55C12.4861 15.7682 12.4145 15.9509 12.2713 16.0982C12.1275 16.2461 11.9496 16.32 11.7375 16.32ZM8.74306 16.32C8.53095 16.32 8.35303 16.2461 8.2093 16.0982C8.06606 15.9509 7.99444 15.7682 7.99444 15.55C7.99444 15.3318 8.06606 15.1491 8.2093 15.0018C8.35303 14.8539 8.53095 14.78 8.74306 14.78C8.95516 14.78 9.13308 14.8539 9.27682 15.0018C9.42005 15.1491 9.49167 15.3318 9.49167 15.55C9.49167 15.7682 9.42005 15.9509 9.27682 16.0982C9.13308 16.2461 8.95516 16.32 8.74306 16.32ZM14.7319 16.32C14.5198 16.32 14.3422 16.2461 14.1989 16.0982C14.0552 15.9509 13.9833 15.7682 13.9833 15.55C13.9833 15.3318 14.0552 15.1491 14.1989 15.0018C14.3422 14.8539 14.5198 14.78 14.7319 14.78C14.9441 14.78 15.1217 14.8539 15.265 15.0018C15.4087 15.1491 15.4806 15.3318 15.4806 15.55C15.4806 15.7682 15.4087 15.9509 15.265 16.0982C15.1217 16.2461 14.9441 16.32 14.7319 16.32ZM6.49722 19.4C6.08549 19.4 5.73289 19.2493 5.43943 18.948C5.14648 18.6462 5 18.2835 5 17.86V7.08C5 6.6565 5.14648 6.29409 5.43943 5.99276C5.73289 5.69092 6.08549 5.54 6.49722 5.54H7.24583V4H8.74306V5.54H14.7319V4H16.2292V5.54H16.9778C17.3895 5.54 17.7421 5.69092 18.0356 5.99276C18.3285 6.29409 18.475 6.6565 18.475 7.08V17.86C18.475 18.2835 18.3285 18.6462 18.0356 18.948C17.7421 19.2493 17.3895 19.4 16.9778 19.4H6.49722ZM6.49722 17.86H16.9778V10.16H6.49722V17.86ZM6.49722 8.62H16.9778V7.08H6.49722V8.62Z" fill="#945967"/>
</g>
</g>
</g>
</svg>
