<svg width="13" height="13" viewBox="0 0 13 13" fill="none" xmlns="http://www.w3.org/2000/svg">
<g id="Icon">
<path d="M8 4.90234C8.75 3.90234 9.05254 3.02935 9.22957 2.36865C9.51027 1.3211 8.85712 0.198299 8.29832 0.0485799C7.79654 -0.0858805 7.36246 0.100643 7.3439 0.108089C7.27463 0.138729 7.22267 0.199337 7.203 0.272701L6.76418 1.91046L4 4.90234V11.1523C4 11.5665 4.33578 11.9023 4.75 11.9023H11.75C12.1642 11.9023 12.5 11.5665 12.5 11.1523C12.5 10.7382 12.1642 10.4023 11.75 10.4023H12C12.4142 10.4023 12.75 10.0665 12.75 9.65234C12.75 9.23816 12.4142 8.90234 12 8.90234C12.5523 8.90234 13 8.45465 13 7.90234C13 7.35003 12.5523 6.90234 12 6.90234C12.5523 6.90234 13 6.45465 13 5.90234C13 5.35003 12.5523 4.90234 12 4.90234H8Z" fill="#90949C"/>
<path d="M1.25 5.40234C0.835785 5.40234 0.5 5.73815 0.5 6.15234V12.1523C0.5 12.5665 0.835785 12.9023 1.25 12.9023H2.75C3.16422 12.9023 3.5 12.5665 3.5 12.1523V6.15234C3.5 5.73815 3.16422 5.40234 2.75 5.40234H1.25Z" fill="#90949C"/>
</g>
</svg>
