<svg width="24" height="25" viewBox="0 0 24 25" fill="none" xmlns="http://www.w3.org/2000/svg">
<g id="Social icon" clip-path="url(#clip0_568_77424)">
<path id="Vector" d="M24 12.5352C24 5.90773 18.6274 0.535156 12 0.535156C5.37258 0.535156 0 5.90773 0 12.5352C0 18.5246 4.3882 23.4891 10.125 24.3894V16.0039H7.07812V12.5352H10.125V9.89141C10.125 6.88391 11.9166 5.22266 14.6576 5.22266C15.9701 5.22266 17.3438 5.45703 17.3438 5.45703V8.41016H15.8306C14.34 8.41016 13.875 9.33523 13.875 10.2852V12.5352H17.2031L16.6711 16.0039H13.875V24.3894C19.6118 23.4891 24 18.5246 24 12.5352Z" fill="#F2EAEC"/>
</g>
<defs>
<clipPath id="clip0_568_77424">
<rect width="24" height="24" fill="white" transform="translate(0 0.535156)"/>
</clipPath>
</defs>
</svg>
