<svg width="56" height="57" viewBox="0 0 56 57" fill="none" xmlns="http://www.w3.org/2000/svg">
<rect x="4" y="4.53516" width="48" height="48" rx="24" fill="#6E2C3B"/>
<path d="M18 23.5352L26.1649 29.2506C26.8261 29.7134 27.1567 29.9448 27.5163 30.0345C27.8339 30.1136 28.1661 30.1136 28.4837 30.0345C28.8433 29.9448 29.1739 29.7134 29.8351 29.2506L38 23.5352M22.8 36.5352H33.2C34.8802 36.5352 35.7202 36.5352 36.362 36.2082C36.9265 35.9206 37.3854 35.4616 37.673 34.8971C38 34.2554 38 33.4153 38 31.7352V25.3352C38 23.655 38 22.8149 37.673 22.1732C37.3854 21.6087 36.9265 21.1498 36.362 20.8621C35.7202 20.5352 34.8802 20.5352 33.2 20.5352H22.8C21.1198 20.5352 20.2798 20.5352 19.638 20.8621C19.0735 21.1498 18.6146 21.6087 18.327 22.1732C18 22.8149 18 23.655 18 25.3352V31.7352C18 33.4153 18 34.2554 18.327 34.8971C18.6146 35.4616 19.0735 35.9206 19.638 36.2082C20.2798 36.5352 21.1198 36.5352 22.8 36.5352Z" stroke="white" stroke-width="2" stroke-linecap="round" stroke-linejoin="round"/>
<rect x="4" y="4.53516" width="48" height="48" rx="24" stroke="#56222E" stroke-width="8"/>
</svg>
