<svg width="56" height="57" viewBox="0 0 56 57" fill="none" xmlns="http://www.w3.org/2000/svg">
<rect x="4" y="4.53516" width="48" height="48" rx="24" fill="#6E2C3B"/>
<path d="M24.3803 25.3884C25.0763 26.838 26.0251 28.1966 27.2266 29.3982C28.4282 30.5998 29.7869 31.5486 31.2365 32.2446C31.3612 32.3045 31.4235 32.3344 31.5024 32.3574C31.7828 32.4391 32.127 32.3804 32.3644 32.2104C32.4313 32.1626 32.4884 32.1054 32.6027 31.9911C32.9523 31.6415 33.1271 31.4667 33.3029 31.3524C33.9658 30.9214 34.8204 30.9214 35.4833 31.3524C35.6591 31.4667 35.8339 31.6415 36.1835 31.9911L36.3783 32.186C36.9098 32.7174 37.1755 32.9831 37.3198 33.2685C37.6069 33.8361 37.6069 34.5063 37.3198 35.0739C37.1755 35.3593 36.9098 35.625 36.3783 36.1564L36.2207 36.3141C35.6911 36.8437 35.4263 37.1085 35.0662 37.3108C34.6667 37.5352 34.0462 37.6965 33.588 37.6952C33.1751 37.6939 32.8928 37.6138 32.3284 37.4536C29.295 36.5927 26.4326 34.9682 24.0447 32.5802C21.6567 30.1922 20.0322 27.3299 19.1712 24.2965C19.011 23.732 18.9309 23.4498 18.9297 23.0369C18.9283 22.5786 19.0897 21.9581 19.3141 21.5586C19.5164 21.1986 19.7812 20.9338 20.3108 20.4042L20.4684 20.2465C20.9999 19.7151 21.2656 19.4494 21.551 19.305C22.1185 19.018 22.7888 19.018 23.3564 19.305C23.6417 19.4494 23.9075 19.7151 24.4389 20.2465L24.6338 20.4414C24.9834 20.791 25.1582 20.9658 25.2725 21.1416C25.7035 21.8045 25.7035 22.6591 25.2725 23.322C25.1582 23.4977 24.9834 23.6725 24.6338 24.0221C24.5195 24.1365 24.4623 24.1936 24.4145 24.2604C24.2445 24.4978 24.1858 24.8421 24.2675 25.1225C24.2905 25.2014 24.3204 25.2637 24.3803 25.3884Z" stroke="white" stroke-width="2" stroke-linecap="round" stroke-linejoin="round"/>
<rect x="4" y="4.53516" width="48" height="48" rx="24" stroke="#56222E" stroke-width="8"/>
</svg>
