<svg width="135" height="41" viewBox="0 0 135 41" fill="none" xmlns="http://www.w3.org/2000/svg">
<rect x="0.5" y="1.03516" width="134" height="39" rx="4.5" fill="black"/>
<path d="M68.136 22.2863C65.784 22.2863 63.867 24.0753 63.867 26.5393C63.867 28.9883 65.784 30.7923 68.136 30.7923C70.489 30.7923 72.406 28.9883 72.406 26.5393C72.405 24.0753 70.488 22.2863 68.136 22.2863ZM68.136 29.1183C66.847 29.1183 65.736 28.0553 65.736 26.5403C65.736 25.0093 66.848 23.9623 68.136 23.9623C69.425 23.9623 70.536 25.0093 70.536 26.5403C70.536 28.0543 69.425 29.1183 68.136 29.1183ZM58.822 22.2863C56.47 22.2863 54.553 24.0753 54.553 26.5393C54.553 28.9883 56.47 30.7923 58.822 30.7923C61.175 30.7923 63.092 28.9883 63.092 26.5393C63.092 24.0753 61.175 22.2863 58.822 22.2863ZM58.822 29.1183C57.533 29.1183 56.422 28.0553 56.422 26.5403C56.422 25.0093 57.534 23.9623 58.822 23.9623C60.111 23.9623 61.222 25.0093 61.222 26.5403C61.223 28.0543 60.111 29.1183 58.822 29.1183ZM47.744 23.5923V25.3963H52.062C51.933 26.4113 51.595 27.1523 51.079 27.6673C50.451 28.2953 49.468 28.9883 47.744 28.9883C45.086 28.9883 43.008 26.8453 43.008 24.1873C43.008 21.5293 45.086 19.3863 47.744 19.3863C49.178 19.3863 50.225 19.9503 50.998 20.6753L52.271 19.4023C51.191 18.3713 49.758 17.5823 47.744 17.5823C44.103 17.5823 41.042 20.5463 41.042 24.1873C41.042 27.8283 44.103 30.7923 47.744 30.7923C49.709 30.7923 51.192 30.1473 52.351 28.9393C53.543 27.7473 53.914 26.0713 53.914 24.7183C53.914 24.3003 53.882 23.9133 53.817 23.5913H47.744V23.5923ZM93.052 24.9933C92.698 24.0433 91.618 22.2863 89.411 22.2863C87.22 22.2863 85.399 24.0103 85.399 26.5393C85.399 28.9233 87.204 30.7923 89.62 30.7923C91.569 30.7923 92.697 29.6003 93.165 28.9073L91.715 27.9403C91.232 28.6493 90.571 29.1163 89.62 29.1163C88.67 29.1163 87.993 28.6813 87.558 27.8273L93.245 25.4753L93.052 24.9933ZM87.252 26.4113C87.204 24.7673 88.525 23.9303 89.476 23.9303C90.217 23.9303 90.845 24.3013 91.055 24.8323L87.252 26.4113ZM82.629 30.5353H84.497V18.0343H82.629V30.5353ZM79.567 23.2373H79.503C79.084 22.7373 78.278 22.2863 77.264 22.2863C75.137 22.2863 73.188 24.1553 73.188 26.5563C73.188 28.9403 75.137 30.7933 77.264 30.7933C78.279 30.7933 79.084 30.3423 79.503 29.8273H79.567V30.4393C79.567 32.0663 78.697 32.9363 77.296 32.9363C76.152 32.9363 75.443 32.1153 75.153 31.4223L73.526 32.0993C73.993 33.2263 75.233 34.6123 77.296 34.6123C79.487 34.6123 81.34 33.3233 81.34 30.1813V22.5453H79.568V23.2373H79.567ZM77.425 29.1183C76.136 29.1183 75.057 28.0383 75.057 26.5563C75.057 25.0573 76.136 23.9623 77.425 23.9623C78.697 23.9623 79.696 25.0573 79.696 26.5563C79.696 28.0383 78.697 29.1183 77.425 29.1183ZM101.806 18.0343H97.335V30.5353H99.2V25.7993H101.805C103.873 25.7993 105.907 24.3023 105.907 21.9173C105.907 19.5323 103.874 18.0343 101.806 18.0343ZM101.854 24.0593H99.2V19.7743H101.854C103.249 19.7743 104.041 20.9293 104.041 21.9173C104.041 22.8853 103.249 24.0593 101.854 24.0593ZM113.386 22.2643C112.035 22.2643 110.636 22.8593 110.057 24.1783L111.713 24.8693C112.067 24.1783 112.727 23.9523 113.418 23.9523C114.383 23.9523 115.364 24.5313 115.38 25.5603V25.6893C115.042 25.4963 114.318 25.2073 113.434 25.2073C111.649 25.2073 109.831 26.1883 109.831 28.0213C109.831 29.6943 111.295 30.7713 112.935 30.7713C114.189 30.7713 114.881 30.2083 115.315 29.5483H115.379V30.5133H117.181V25.7203C117.182 23.5023 115.524 22.2643 113.386 22.2643ZM113.16 29.1153C112.55 29.1153 111.697 28.8093 111.697 28.0533C111.697 27.0883 112.759 26.7183 113.676 26.7183C114.495 26.7183 114.882 26.8953 115.38 27.1363C115.235 28.2953 114.238 29.1153 113.16 29.1153ZM123.743 22.5373L121.604 27.9573H121.54L119.32 22.5373H117.31L120.639 30.1123L118.741 34.3263H120.687L125.818 22.5373H123.743ZM106.937 30.5353H108.802V18.0343H106.937V30.5353Z" fill="white"/>
<path d="M47.418 10.7781C47.418 11.6161 47.1701 12.2831 46.673 12.7811C46.109 13.3731 45.3731 13.6691 44.4691 13.6691C43.6031 13.6691 42.8661 13.3691 42.2611 12.7691C41.6551 12.1681 41.3521 11.4241 41.3521 10.5361C41.3521 9.6471 41.6551 8.9031 42.2611 8.3031C42.8661 7.7021 43.6031 7.4021 44.4691 7.4021C44.8991 7.4021 45.3101 7.4861 45.7001 7.6531C46.0911 7.8211 46.404 8.0441 46.6381 8.3231L46.111 8.8511C45.714 8.3761 45.167 8.1391 44.468 8.1391C43.836 8.1391 43.29 8.3611 42.829 8.8051C42.368 9.2491 42.1381 9.8261 42.1381 10.5351C42.1381 11.2441 42.368 11.8211 42.829 12.2651C43.29 12.7091 43.836 12.9311 44.468 12.9311C45.138 12.9311 45.6971 12.7081 46.1441 12.2611C46.4341 11.9701 46.602 11.5651 46.647 11.0461H44.468V10.3251H47.375C47.405 10.4821 47.418 10.6331 47.418 10.7781Z" fill="white"/>
<path d="M52.0281 8.27216H49.2961V10.1742H51.7601V10.8952H49.2961V12.7972H52.0281V13.5352H48.5251V7.53516H52.0281V8.27216Z" fill="white"/>
<path d="M55.279 13.5352H54.508V8.27216H52.832V7.53516H56.955V8.27216H55.279V13.5352Z" fill="white"/>
<path d="M59.938 13.5352V7.53516H60.709V13.5352H59.938Z" fill="white"/>
<path d="M64.1281 13.5352H63.3572V8.27216H61.6812V7.53516H65.8042V8.27216H64.1281V13.5352Z" fill="white"/>
<path d="M73.6089 12.7601C73.0189 13.3661 72.2859 13.6691 71.4089 13.6691C70.5319 13.6691 69.7989 13.3661 69.2099 12.7601C68.6199 12.1541 68.3259 11.4121 68.3259 10.5351C68.3259 9.65815 68.6199 8.91615 69.2099 8.31015C69.7989 7.70415 70.5319 7.40015 71.4089 7.40015C72.2809 7.40015 73.0129 7.70515 73.6049 8.31415C74.1969 8.92315 74.4929 9.66315 74.4929 10.5351C74.4929 11.4121 74.1979 12.1541 73.6089 12.7601ZM69.7789 12.2571C70.2229 12.7071 70.7659 12.9311 71.4089 12.9311C72.0519 12.9311 72.5959 12.7061 73.0389 12.2571C73.4829 11.8071 73.7059 11.2331 73.7059 10.5351C73.7059 9.83715 73.4829 9.26315 73.0389 8.81315C72.5959 8.36315 72.0519 8.13915 71.4089 8.13915C70.7659 8.13915 70.2229 8.36415 69.7789 8.81315C69.3359 9.26315 69.1129 9.83715 69.1129 10.5351C69.1129 11.2331 69.3359 11.8071 69.7789 12.2571Z" fill="white"/>
<path d="M75.5749 13.5352V7.53516H76.513L79.429 12.2022H79.4619L79.429 11.0462V7.53516H80.1999V13.5352H79.3949L76.344 8.64116H76.3109L76.344 9.79716V13.5352H75.5749Z" fill="white"/>
<path d="M47.418 10.7781C47.418 11.6161 47.1701 12.2831 46.673 12.7811C46.109 13.3731 45.3731 13.6691 44.4691 13.6691C43.6031 13.6691 42.8661 13.3691 42.2611 12.7691C41.6551 12.1681 41.3521 11.4241 41.3521 10.5361C41.3521 9.6471 41.6551 8.9031 42.2611 8.3031C42.8661 7.7021 43.6031 7.4021 44.4691 7.4021C44.8991 7.4021 45.3101 7.4861 45.7001 7.6531C46.0911 7.8211 46.404 8.0441 46.6381 8.3231L46.111 8.8511C45.714 8.3761 45.167 8.1391 44.468 8.1391C43.836 8.1391 43.29 8.3611 42.829 8.8051C42.368 9.2491 42.1381 9.8261 42.1381 10.5351C42.1381 11.2441 42.368 11.8211 42.829 12.2651C43.29 12.7091 43.836 12.9311 44.468 12.9311C45.138 12.9311 45.6971 12.7081 46.1441 12.2611C46.4341 11.9701 46.602 11.5651 46.647 11.0461H44.468V10.3251H47.375C47.405 10.4821 47.418 10.6331 47.418 10.7781Z" stroke="white" stroke-width="0.2" stroke-miterlimit="10"/>
<path d="M52.0281 8.27216H49.2961V10.1742H51.7601V10.8952H49.2961V12.7972H52.0281V13.5352H48.5251V7.53516H52.0281V8.27216Z" stroke="white" stroke-width="0.2" stroke-miterlimit="10"/>
<path d="M55.279 13.5352H54.508V8.27216H52.832V7.53516H56.955V8.27216H55.279V13.5352Z" stroke="white" stroke-width="0.2" stroke-miterlimit="10"/>
<path d="M59.938 13.5352V7.53516H60.709V13.5352H59.938Z" stroke="white" stroke-width="0.2" stroke-miterlimit="10"/>
<path d="M64.1281 13.5352H63.3572V8.27216H61.6812V7.53516H65.8042V8.27216H64.1281V13.5352Z" stroke="white" stroke-width="0.2" stroke-miterlimit="10"/>
<path d="M73.6089 12.7601C73.0189 13.3661 72.2859 13.6691 71.4089 13.6691C70.5319 13.6691 69.7989 13.3661 69.2099 12.7601C68.6199 12.1541 68.3259 11.4121 68.3259 10.5351C68.3259 9.65815 68.6199 8.91615 69.2099 8.31015C69.7989 7.70415 70.5319 7.40015 71.4089 7.40015C72.2809 7.40015 73.0129 7.70515 73.6049 8.31415C74.1969 8.92315 74.4929 9.66315 74.4929 10.5351C74.4929 11.4121 74.1979 12.1541 73.6089 12.7601ZM69.7789 12.2571C70.2229 12.7071 70.7659 12.9311 71.4089 12.9311C72.0519 12.9311 72.5959 12.7061 73.0389 12.2571C73.4829 11.8071 73.7059 11.2331 73.7059 10.5351C73.7059 9.83715 73.4829 9.26315 73.0389 8.81315C72.5959 8.36315 72.0519 8.13915 71.4089 8.13915C70.7659 8.13915 70.2229 8.36415 69.7789 8.81315C69.3359 9.26315 69.1129 9.83715 69.1129 10.5351C69.1129 11.2331 69.3359 11.8071 69.7789 12.2571Z" stroke="white" stroke-width="0.2" stroke-miterlimit="10"/>
<path d="M75.5749 13.5352V7.53516H76.513L79.429 12.2022H79.4619L79.429 11.0462V7.53516H80.1999V13.5352H79.3949L76.344 8.64116H76.3109L76.344 9.79716V13.5352H75.5749Z" stroke="white" stroke-width="0.2" stroke-miterlimit="10"/>
<g filter="url(#filter0_ii_568_77416)">
<path d="M10.4361 8.07312C10.1451 8.38112 9.97314 8.85912 9.97314 9.47812V31.5941C9.97314 32.2141 10.1451 32.6911 10.4361 32.9991L10.5101 33.0711L22.8991 20.6821V20.5361V20.3901L10.5101 8.00012L10.4361 8.07312Z" fill="url(#paint0_linear_568_77416)"/>
<path d="M27.0279 24.8131L22.8989 20.6821V20.5361V20.3901L27.0289 16.2601L27.1219 16.3131L32.0149 19.0931C33.4119 19.8871 33.4119 21.1861 32.0149 21.9811L27.1219 24.7611L27.0279 24.8131Z" fill="url(#paint1_linear_568_77416)"/>
<g filter="url(#filter1_i_568_77416)">
<path d="M27.122 24.7601L22.898 20.5361L10.436 32.9991C10.896 33.4871 11.657 33.5471 12.514 33.0611L27.122 24.7601Z" fill="url(#paint2_linear_568_77416)"/>
</g>
<path d="M27.122 16.3121L12.514 8.0121C11.657 7.5251 10.896 7.5861 10.436 8.0741L22.899 20.5371L27.122 16.3121Z" fill="url(#paint3_linear_568_77416)"/>
</g>
<rect x="0.5" y="1.03516" width="134" height="39" rx="4.5" stroke="#A6A6A6"/>
<defs>
<filter id="filter0_ii_568_77416" x="9.97314" y="7.67603" width="23.0894" height="25.7208" filterUnits="userSpaceOnUse" color-interpolation-filters="sRGB">
<feFlood flood-opacity="0" result="BackgroundImageFix"/>
<feBlend mode="normal" in="SourceGraphic" in2="BackgroundImageFix" result="shape"/>
<feColorMatrix in="SourceAlpha" type="matrix" values="0 0 0 0 0 0 0 0 0 0 0 0 0 0 0 0 0 0 127 0" result="hardAlpha"/>
<feOffset dy="-0.15"/>
<feComposite in2="hardAlpha" operator="arithmetic" k2="-1" k3="1"/>
<feColorMatrix type="matrix" values="0 0 0 0 0 0 0 0 0 0 0 0 0 0 0 0 0 0 0.12 0"/>
<feBlend mode="normal" in2="shape" result="effect1_innerShadow_568_77416"/>
<feColorMatrix in="SourceAlpha" type="matrix" values="0 0 0 0 0 0 0 0 0 0 0 0 0 0 0 0 0 0 127 0" result="hardAlpha"/>
<feOffset dy="0.15"/>
<feComposite in2="hardAlpha" operator="arithmetic" k2="-1" k3="1"/>
<feColorMatrix type="matrix" values="0 0 0 0 1 0 0 0 0 1 0 0 0 0 1 0 0 0 0.25 0"/>
<feBlend mode="normal" in2="effect1_innerShadow_568_77416" result="effect2_innerShadow_568_77416"/>
</filter>
<filter id="filter1_i_568_77416" x="10.436" y="20.5361" width="16.686" height="12.8607" filterUnits="userSpaceOnUse" color-interpolation-filters="sRGB">
<feFlood flood-opacity="0" result="BackgroundImageFix"/>
<feBlend mode="normal" in="SourceGraphic" in2="BackgroundImageFix" result="shape"/>
<feColorMatrix in="SourceAlpha" type="matrix" values="0 0 0 0 0 0 0 0 0 0 0 0 0 0 0 0 0 0 127 0" result="hardAlpha"/>
<feOffset dy="-0.15"/>
<feComposite in2="hardAlpha" operator="arithmetic" k2="-1" k3="1"/>
<feColorMatrix type="matrix" values="0 0 0 0 0 0 0 0 0 0 0 0 0 0 0 0 0 0 0.08 0"/>
<feBlend mode="normal" in2="shape" result="effect1_innerShadow_568_77416"/>
</filter>
<linearGradient id="paint0_linear_568_77416" x1="21.8009" y1="9.24412" x2="5.01895" y2="26.0261" gradientUnits="userSpaceOnUse">
<stop stop-color="#00A0FF"/>
<stop offset="0.0066" stop-color="#00A1FF"/>
<stop offset="0.2601" stop-color="#00BEFF"/>
<stop offset="0.5122" stop-color="#00D2FF"/>
<stop offset="0.7604" stop-color="#00DFFF"/>
<stop offset="1" stop-color="#00E3FF"/>
</linearGradient>
<linearGradient id="paint1_linear_568_77416" x1="33.8334" y1="20.5361" x2="9.63753" y2="20.5361" gradientUnits="userSpaceOnUse">
<stop stop-color="#FFE000"/>
<stop offset="0.4087" stop-color="#FFBD00"/>
<stop offset="0.7754" stop-color="#FFA500"/>
<stop offset="1" stop-color="#FF9C00"/>
</linearGradient>
<linearGradient id="paint2_linear_568_77416" x1="24.8281" y1="22.83" x2="2.06964" y2="45.5885" gradientUnits="userSpaceOnUse">
<stop stop-color="#FF3A44"/>
<stop offset="1" stop-color="#C31162"/>
</linearGradient>
<linearGradient id="paint3_linear_568_77416" x1="7.29743" y1="0.711901" x2="17.4597" y2="10.8742" gradientUnits="userSpaceOnUse">
<stop stop-color="#32A071"/>
<stop offset="0.0685" stop-color="#2DA771"/>
<stop offset="0.4762" stop-color="#15CF74"/>
<stop offset="0.8009" stop-color="#06E775"/>
<stop offset="1" stop-color="#00F076"/>
</linearGradient>
</defs>
</svg>
