<svg width="23" height="23" viewBox="0 0 23 23" fill="none" xmlns="http://www.w3.org/2000/svg">
<g id="Logo">
<path fill-rule="evenodd" clip-rule="evenodd" d="M11.5 17C14.5376 17 17 14.5375 17 11.5C17 8.46246 14.5376 6 11.5 6C8.4624 6 6 8.46246 6 11.5C6 14.5375 8.4624 17 11.5 17ZM11.5 15C13.4331 15 15 13.433 15 11.5C15 9.56702 13.4331 8 11.5 8C9.56689 8 8 9.56702 8 11.5C8 13.433 9.56689 15 11.5 15Z" fill="black"/>
<path d="M17.5 7C18.3284 7 19 6.32843 19 5.5C19 4.67157 18.3284 4 17.5 4C16.6716 4 16 4.67157 16 5.5C16 6.32843 16.6716 7 17.5 7Z" fill="black"/>
<path fill-rule="evenodd" clip-rule="evenodd" d="M1.48901 2.04395C0 3.74176 0 6.32782 0 11.5C0 16.6722 0 19.2582 1.48901 20.9561C1.5957 21.0779 1.70752 21.1953 1.82373 21.308C1.89551 21.3775 1.96875 21.4452 2.04395 21.511C3.7417 23 6.32788 23 11.5 23C16.6721 23 19.2583 23 20.9561 21.511C21.1531 21.3384 21.3384 21.153 21.511 20.9561C23 19.2582 23 16.6722 23 11.5C23 6.32782 23 3.74176 21.511 2.04395C21.3972 1.91406 21.2778 1.78918 21.1531 1.66968C21.0889 1.60797 21.0232 1.54773 20.9561 1.48895C19.2583 0 16.6721 0 11.5 0C6.32788 0 3.7417 0 2.04395 1.48895C1.84692 1.66162 1.66162 1.84705 1.48901 2.04395ZM5.7146 20.829C7.0686 20.9964 8.86255 21 11.5 21C14.1375 21 15.9314 20.9964 17.2854 20.829C18.5913 20.6675 19.2114 20.3809 19.6375 20.0074C19.6938 19.9578 19.749 19.9066 19.8027 19.8539C19.8738 19.7843 19.9419 19.7121 20.0073 19.6374C20.3809 19.2115 20.6675 18.5912 20.8291 17.2855C20.9963 15.9315 21 14.1376 21 11.5C21 8.86243 20.9963 7.06854 20.8291 5.71454C20.6675 4.40875 20.3809 3.78851 20.0073 3.36261C19.8923 3.23132 19.7686 3.10779 19.6375 2.99261C19.2114 2.61914 18.5913 2.33246 17.2854 2.17102C15.9314 2.0036 14.1375 2 11.5 2C8.86255 2 7.0686 2.0036 5.7146 2.17102C4.40869 2.33246 3.78857 2.61914 3.36255 2.99261C3.23145 3.10779 3.10767 3.23132 2.99268 3.36261C2.61914 3.78851 2.33252 4.40875 2.1709 5.71454C2.00366 7.06854 2 8.86243 2 11.5C2 14.1376 2.00366 15.9315 2.1709 17.2855C2.33252 18.5912 2.61914 19.2115 2.99268 19.6374C3.02344 19.6725 3.05493 19.7072 3.08691 19.7412L3.14062 19.7972C3.21191 19.8701 3.28589 19.9401 3.36255 20.0074C3.78857 20.3809 4.40869 20.6675 5.7146 20.829Z" fill="black"/>
</g>
</svg>
