<svg width="20" height="24" viewBox="0 0 20 24" fill="none" xmlns="http://www.w3.org/2000/svg">
<g id="Icon">
<path d="M4.53974 6.00519C4.24685 5.7123 4.24685 5.23742 4.53974 4.94453L9.11815 0.366117C9.60631 -0.122039 10.3978 -0.122039 10.8859 0.366117L15.4821 4.96231C15.775 5.2552 15.775 5.73008 15.4821 6.02297C15.1892 6.31586 14.7143 6.31586 14.4215 6.02297L10.75 2.35152V15.25C10.75 15.6642 10.4142 16 10 16C9.58579 16 9.25 15.6642 9.25 15.25V2.35559L5.6004 6.00519C5.30751 6.29808 4.83263 6.29808 4.53974 6.00519Z" fill="#262626"/>
<path d="M0 22V12H1.5V22C1.5 22.2761 1.72386 22.5 2 22.5H18C18.2761 22.5 18.5 22.2761 18.5 22V12H20V22C20 23.1046 19.1046 24 18 24H2C0.895431 24 0 23.1046 0 22Z" fill="#262626"/>
</g>
</svg>
