<svg width="22" height="22" viewBox="0 0 22 22" fill="none" xmlns="http://www.w3.org/2000/svg">
<path id="Icon" fill-rule="evenodd" clip-rule="evenodd" d="M18.8724 16.3279L19.2152 15.741C20.0319 14.3426 20.5 12.7169 20.5 10.9776C20.5 5.74615 16.2496 1.5 11 1.5C5.75036 1.5 1.5 5.74615 1.5 10.9776C1.5 16.2091 5.75036 20.4552 11 20.4552C12.5902 20.4552 14.085 20.0666 15.3985 19.3807L15.9195 19.1086L20.1893 20.2708L18.8724 16.3279ZM21.9092 20.6852C22.1616 21.4414 21.4678 22.1733 20.6973 21.9636L16.0928 20.7103C14.5701 21.5055 12.8376 21.9552 11 21.9552C4.9248 21.9552 0 17.0404 0 10.9776C0 4.91485 4.9248 0 11 0C17.0752 0 22 4.91485 22 10.9776C22 12.9899 21.4575 14.8758 20.5105 16.4974L21.9092 20.6852ZM21.0905 20.516C21.0903 20.516 21.0907 20.5161 21.0905 20.516V20.516Z" fill="#262626"/>
</svg>
