<svg width="24" height="20" viewBox="0 0 24 20" fill="none" xmlns="http://www.w3.org/2000/svg">
<path id="Icon" fill-rule="evenodd" clip-rule="evenodd" d="M12.0001 5.33351L10.7812 3.63383C9.85522 2.34268 8.33366 1.5 6.60884 1.5C3.91386 1.5 1.5 3.62758 1.5 7.55534C1.5 8.2571 1.81877 9.1458 2.53321 10.2084C3.23548 11.2529 4.23084 12.3336 5.36587 13.3883C7.37553 15.2559 9.66819 16.904 11.2178 18.0181C11.4216 18.1645 11.6125 18.3018 11.7883 18.4291C11.9188 18.5236 12.0812 18.5236 12.2117 18.4291C12.3875 18.3018 12.5784 18.1645 12.7822 18.018C14.3318 16.904 16.6245 15.2559 18.6341 13.3883C19.7692 12.3336 20.7645 11.2529 21.4668 10.2084C22.1812 9.1458 22.5 8.2571 22.5 7.55534C22.5 3.62758 20.0861 1.5 17.3912 1.5C15.6664 1.5 14.1451 2.34263 13.2191 3.63383L12.0001 5.33351ZM10.9722 1.62989C9.80817 0.615314 8.28098 0 6.60884 0C2.95889 0 0 2.93163 0 7.55534C0 11.8041 7.05656 16.875 10.3471 19.2396C10.5492 19.3849 10.7371 19.5199 10.9083 19.6439C11.5639 20.1187 12.4361 20.1187 13.0917 19.6439C13.2629 19.5199 13.4508 19.3849 13.6528 19.2396C16.9434 16.875 24 11.8041 24 7.55534C24 2.93163 21.0411 0 17.3912 0C15.719 0 14.192 0.615307 13.028 1.62987C12.643 1.9654 12.2978 2.3446 12.0001 2.75965C11.7025 2.34461 11.3572 1.96542 10.9722 1.62989Z" fill="#262626"/>
</svg>
