<svg width="24" height="25" viewBox="0 0 24 25" fill="none" xmlns="http://www.w3.org/2000/svg">
<g id="Social icon" clip-path="url(#clip0_568_77423)">
<g id="Group">
<path id="Vector" d="M22.2234 0.535156H1.77187C0.792187 0.535156 0 1.30859 0 2.26484V22.8008C0 23.757 0.792187 24.5352 1.77187 24.5352H22.2234C23.2031 24.5352 24 23.757 24 22.8055V2.26484C24 1.30859 23.2031 0.535156 22.2234 0.535156ZM7.12031 20.9867H3.55781V9.53047H7.12031V20.9867ZM5.33906 7.96953C4.19531 7.96953 3.27188 7.04609 3.27188 5.90703C3.27188 4.76797 4.19531 3.84453 5.33906 3.84453C6.47813 3.84453 7.40156 4.76797 7.40156 5.90703C7.40156 7.04141 6.47813 7.96953 5.33906 7.96953ZM20.4516 20.9867H16.8937V15.418C16.8937 14.0914 16.8703 12.3805 15.0422 12.3805C13.1906 12.3805 12.9094 13.8289 12.9094 15.3242V20.9867H9.35625V9.53047H12.7687V11.0961H12.8156C13.2891 10.1961 14.4516 9.24453 16.1813 9.24453C19.7859 9.24453 20.4516 11.6164 20.4516 14.7008V20.9867Z" fill="#F2EAEC"/>
</g>
</g>
<defs>
<clipPath id="clip0_568_77423">
<rect width="24" height="24" fill="white" transform="translate(0 0.535156)"/>
</clipPath>
</defs>
</svg>
