<svg width="20" height="20" viewBox="0 0 20 20" fill="none" xmlns="http://www.w3.org/2000/svg">
<g id="map-pin">
<g id="Vector">
<path d="M10.0002 11.6665C11.3809 11.6665 12.5002 10.5472 12.5002 9.16646C12.5002 7.78575 11.3809 6.66646 10.0002 6.66646C8.61945 6.66646 7.50016 7.78575 7.50016 9.16646C7.50016 10.5472 8.61945 11.6665 10.0002 11.6665Z" stroke="#718096" stroke-width="1.5" stroke-linecap="round" stroke-linejoin="round"/>
<path d="M14.7143 13.8806L11.1785 17.4164C10.866 17.7286 10.4423 17.904 10.0006 17.904C9.55885 17.904 9.13518 17.7286 8.82267 17.4164L5.286 13.8806C4.35368 12.9482 3.71878 11.7603 3.46157 10.4671C3.20437 9.17395 3.33641 7.83352 3.841 6.61536C4.3456 5.39721 5.20008 4.35604 6.2964 3.62351C7.39272 2.89098 8.68164 2.5 10.0002 2.5C11.3187 2.5 12.6076 2.89098 13.7039 3.62351C14.8003 4.35604 15.6547 5.39721 16.1593 6.61536C16.6639 7.83352 16.796 9.17395 16.5388 10.4671C16.2816 11.7603 15.6466 12.9482 14.7143 13.8806Z" stroke="#718096" stroke-width="1.5" stroke-linecap="round" stroke-linejoin="round"/>
</g>
</g>
</svg>
