<svg width="24" height="25" viewBox="0 0 24 25" fill="none" xmlns="http://www.w3.org/2000/svg">
<path d="M12 22.1851C17.5228 22.1851 22 17.7079 22 12.1851C22 6.66221 17.5228 2.18506 12 2.18506C6.47715 2.18506 2 6.66221 2 12.1851C2 17.7079 6.47715 22.1851 12 22.1851Z" stroke="#344054" stroke-width="2" stroke-linecap="round" stroke-linejoin="round"/>
<path d="M9.5 9.15039C9.5 8.67311 9.5 8.43446 9.59974 8.30124C9.68666 8.18513 9.81971 8.11249 9.96438 8.10216C10.1304 8.09031 10.3311 8.21935 10.7326 8.47745L15.4532 11.5121C15.8016 11.7361 15.9758 11.8481 16.0359 11.9904C16.0885 12.1149 16.0885 12.2553 16.0359 12.3797C15.9758 12.5221 15.8016 12.634 15.4532 12.858L10.7326 15.8927C10.3311 16.1508 10.1304 16.2798 9.96438 16.268C9.81971 16.2576 9.68666 16.185 9.59974 16.0689C9.5 15.9357 9.5 15.697 9.5 15.2197V9.15039Z" stroke="#344054" stroke-width="2" stroke-linecap="round" stroke-linejoin="round"/>
</svg>
