<svg width="130" height="129" viewBox="0 0 130 129" fill="none" xmlns="http://www.w3.org/2000/svg">
<g opacity="0.1">
<path d="M65 0C100.36 0 129.07 28.7096 129.07 64.0695C129.07 99.4295 100.36 128.139 65 128.139C29.64 128.139 0.93042 99.4295 0.93042 64.0695C0.93042 28.7096 29.64 0 65 0Z" fill="#5FCE2F"/>
</g>
<g opacity="0.2">
<path d="M65.0001 7.8252C96.0414 7.8252 121.245 33.0283 121.245 64.0697C121.245 95.111 96.0414 120.314 65.0001 120.314C33.9588 120.314 8.75562 95.111 8.75562 64.0697C8.75562 33.0283 33.9588 7.8252 65.0001 7.8252Z" fill="#5FCE2F"/>
</g>
<path d="M64.9999 18.5854C90.1027 18.5854 110.484 38.967 110.484 64.0697C110.484 89.1725 90.1027 109.554 64.9999 109.554C39.8971 109.554 19.5156 89.1725 19.5156 64.0697C19.5156 38.967 39.8971 18.5854 64.9999 18.5854Z" fill="#5FCE2F"/>
<path d="M41.2154 69.8324C46.723 74.2502 57.7389 83.0852 57.7389 83.0852C57.7389 83.0852 77.9805 60.523 88.1012 49.2421" stroke="white" stroke-width="11.7904" stroke-linecap="round" stroke-linejoin="round"/>
</svg>
