<svg width="24" height="25" viewBox="0 0 24 25" fill="none" xmlns="http://www.w3.org/2000/svg">
<g id="Social icon">
<path id="Vector" d="M7.55016 22.2851C16.6045 22.2851 21.5583 14.7819 21.5583 8.27702C21.5583 8.06608 21.5536 7.85045 21.5442 7.63952C22.5079 6.94262 23.3395 6.07941 24 5.09045C23.1025 5.48976 22.1496 5.75054 21.1739 5.86389C22.2013 5.24806 22.9705 4.28063 23.3391 3.14092C22.3726 3.71371 21.3156 4.11777 20.2134 4.33577C19.4708 3.54672 18.489 3.02427 17.4197 2.84921C16.3504 2.67414 15.2532 2.85621 14.2977 3.36725C13.3423 3.8783 12.5818 4.68986 12.1338 5.67647C11.6859 6.66307 11.5754 7.76977 11.8195 8.82545C9.86249 8.72725 7.94794 8.21886 6.19998 7.33325C4.45203 6.44765 2.90969 5.20459 1.67297 3.68467C1.0444 4.7684 0.852057 6.0508 1.13503 7.27125C1.418 8.49169 2.15506 9.5586 3.19641 10.2551C2.41463 10.2303 1.64998 10.0198 0.965625 9.64108V9.70202C0.964925 10.8393 1.3581 11.9417 2.07831 12.8219C2.79852 13.7021 3.80132 14.3057 4.91625 14.5301C4.19206 14.7283 3.43198 14.7572 2.69484 14.6145C3.00945 15.5926 3.62157 16.448 4.44577 17.0615C5.26997 17.6749 6.26512 18.0158 7.29234 18.0364C5.54842 19.4063 3.39417 20.1493 1.17656 20.1458C0.783287 20.1452 0.390399 20.1211 0 20.0736C2.25286 21.5189 4.87353 22.2865 7.55016 22.2851Z" fill="#F2EAEC"/>
</g>
</svg>
