<svg width="20" height="24" viewBox="0 0 20 24" fill="none" xmlns="http://www.w3.org/2000/svg">
<path d="M18.4836 5.65593C17.8535 5.99362 17.1854 6.2154 16.5013 6.31393C17.2223 5.79136 17.762 4.96894 18.0198 3.99993C17.343 4.48793 16.6011 4.82993 15.8279 5.01493C15.3084 4.34151 14.62 3.89489 13.8694 3.74451C13.1189 3.59413 12.3485 3.74842 11.6778 4.18338C11.0071 4.61834 10.4738 5.30961 10.1608 6.14972C9.84782 6.98983 9.77264 7.93171 9.94698 8.82893C8.57465 8.74558 7.23212 8.31345 6.00656 7.56059C4.781 6.80773 3.6998 5.75097 2.83317 4.45893C2.52641 5.09738 2.3652 5.82315 2.36606 6.56193C2.36606 8.01193 2.97511 9.29293 3.90106 10.0429C3.35309 10.022 2.81718 9.84271 2.338 9.51993V9.57193C2.33817 10.5376 2.61395 11.4735 3.11858 12.221C3.62322 12.9684 4.32565 13.4814 5.10678 13.6729C4.5981 13.84 4.06472 13.8646 3.54702 13.7449C3.76726 14.5762 4.19652 15.3031 4.77469 15.824C5.35286 16.3449 6.05099 16.6337 6.77135 16.6499C6.05541 17.3313 5.23567 17.8349 4.35899 18.1321C3.48231 18.4293 2.56588 18.5142 1.66211 18.3819C3.23977 19.6114 5.07633 20.264 6.95208 20.2619C13.3009 20.2619 16.7728 13.8889 16.7728 8.36193C16.7728 8.18193 16.7687 7.99993 16.7621 7.82193C17.4378 7.23009 18.0211 6.49695 18.4844 5.65693L18.4836 5.65593Z" fill="#356FDF"/>
</svg>
