<svg width="18" height="19" viewBox="0 0 18 19" fill="none" xmlns="http://www.w3.org/2000/svg">
<g id="like">
<mask id="mask0_724_38210" style="mask-type:alpha" maskUnits="userSpaceOnUse" x="0" y="0" width="18" height="19">
<rect id="Rectangle 9" y="0.5" width="18" height="18" fill="#C4C4C4"/>
</mask>
<g mask="url(#mask0_724_38210)">
<path id="Vector" d="M9.0375 16.9355H9.027C7.08975 16.8995 1.5 11.849 1.5 7.0655C1.5 4.7675 3.39375 2.75 5.55225 2.75C7.26975 2.75 8.42475 3.935 9.03675 4.7975C9.64725 3.9365 10.8022 2.75 12.5205 2.75C14.6805 2.75 16.5735 4.7675 16.5735 7.06625C16.5735 11.8483 10.983 16.8987 9.04575 16.934H9.0375V16.9355ZM5.553 3.87575C3.993 3.87575 2.62575 5.36675 2.62575 7.067C2.62575 11.372 7.90125 15.764 9.03825 15.8105C10.1768 15.764 15.4508 11.3727 15.4508 7.067C15.4508 5.36675 14.0835 3.87575 12.5235 3.87575C10.6275 3.87575 9.5685 6.07775 9.5595 6.0995C9.387 6.521 8.6925 6.521 8.51925 6.0995C8.50875 6.077 7.4505 3.87575 5.55375 3.87575H5.553Z" fill="#536471"/>
</g>
</g>
</svg>
